<svg width="21" height="20" viewBox="0 0 21 20" fill="none" xmlns="http://www.w3.org/2000/svg">
<g id="Media / Social icon">
<path id="bg" d="M0.0825195 10C0.0825195 15.5228 4.55967 20 10.0825 20C15.6054 20 20.0825 15.5228 20.0825 10C20.0825 4.47715 15.6054 0 10.0825 0C4.55967 0 0.0825195 4.47715 0.0825195 10Z" fill="#101828"/>
<path id="facebook" d="M15.0825 10C15.0825 7.25 12.8325 5 10.0825 5C7.33252 5 5.08252 7.25 5.08252 10C5.08252 12.5 6.89502 14.5625 9.27002 14.9375V11.4375H8.02002V10H9.27002V8.875C9.27002 7.625 10.02 6.9375 11.145 6.9375C11.7075 6.9375 12.27 7.0625 12.27 7.0625V8.3125H11.645C11.02 8.3125 10.8325 8.6875 10.8325 9.0625V10H12.2075L11.9575 11.4375H10.77V15C13.27 14.625 15.0825 12.5 15.0825 10Z" fill="white"/>
</g>
</svg>
