<svg width="91" height="40" viewBox="0 0 91 40" fill="none" xmlns="http://www.w3.org/2000/svg">
<g filter="url(#filter0_d_1034_6835)">
<rect x="2" y="1" width="87" height="36" rx="8" fill="#EEF8FF"/>
<rect x="2.5" y="1.5" width="86" height="35" rx="7.5" stroke="#EEF8FF"/>
<path d="M20.494 23.68C19.63 23.68 18.89 23.492 18.274 23.116C17.658 22.736 17.184 22.208 16.852 21.532C16.524 20.856 16.36 20.072 16.36 19.18C16.36 18.288 16.524 17.504 16.852 16.828C17.184 16.152 17.658 15.626 18.274 15.25C18.89 14.87 19.63 14.68 20.494 14.68C21.49 14.68 22.32 14.93 22.984 15.43C23.648 15.926 24.114 16.596 24.382 17.44L22.924 17.842C22.756 17.278 22.47 16.838 22.066 16.522C21.662 16.202 21.138 16.042 20.494 16.042C19.914 16.042 19.43 16.172 19.042 16.432C18.658 16.692 18.368 17.058 18.172 17.53C17.98 17.998 17.882 18.548 17.878 19.18C17.878 19.812 17.974 20.364 18.166 20.836C18.362 21.304 18.654 21.668 19.042 21.928C19.43 22.188 19.914 22.318 20.494 22.318C21.138 22.318 21.662 22.158 22.066 21.838C22.47 21.518 22.756 21.078 22.924 20.518L24.382 20.92C24.114 21.764 23.648 22.436 22.984 22.936C22.32 23.432 21.49 23.68 20.494 23.68ZM28.5614 23.68C27.9134 23.68 27.3474 23.534 26.8634 23.242C26.3794 22.95 26.0034 22.548 25.7354 22.036C25.4714 21.52 25.3394 20.928 25.3394 20.26C25.3394 19.58 25.4754 18.984 25.7474 18.472C26.0194 17.96 26.3974 17.56 26.8814 17.272C27.3654 16.984 27.9254 16.84 28.5614 16.84C29.2134 16.84 29.7814 16.986 30.2654 17.278C30.7494 17.57 31.1254 17.974 31.3934 18.49C31.6614 19.002 31.7954 19.592 31.7954 20.26C31.7954 20.932 31.6594 21.526 31.3874 22.042C31.1194 22.554 30.7434 22.956 30.2594 23.248C29.7754 23.536 29.2094 23.68 28.5614 23.68ZM28.5614 22.324C29.1374 22.324 29.5654 22.132 29.8454 21.748C30.1254 21.364 30.2654 20.868 30.2654 20.26C30.2654 19.632 30.1234 19.132 29.8394 18.76C29.5554 18.384 29.1294 18.196 28.5614 18.196C28.1734 18.196 27.8534 18.284 27.6014 18.46C27.3534 18.632 27.1694 18.874 27.0494 19.186C26.9294 19.494 26.8694 19.852 26.8694 20.26C26.8694 20.888 27.0114 21.39 27.2954 21.766C27.5834 22.138 28.0054 22.324 28.5614 22.324ZM36.2313 23.68C35.5993 23.68 35.0693 23.53 34.6413 23.23C34.2133 22.93 33.8913 22.522 33.6753 22.006C33.4593 21.486 33.3513 20.904 33.3513 20.26C33.3513 19.608 33.4593 19.024 33.6753 18.508C33.8913 17.992 34.2073 17.586 34.6233 17.29C35.0433 16.99 35.5613 16.84 36.1773 16.84C36.7893 16.84 37.3193 16.99 37.7673 17.29C38.2193 17.586 38.5693 17.992 38.8173 18.508C39.0653 19.02 39.1893 19.604 39.1893 20.26C39.1893 20.908 39.0673 21.49 38.8233 22.006C38.5793 22.522 38.2353 22.93 37.7913 23.23C37.3473 23.53 36.8273 23.68 36.2313 23.68ZM33.1053 26.38V17.02H34.3833V21.568H34.5633V26.38H33.1053ZM36.0093 22.384C36.3853 22.384 36.6953 22.29 36.9393 22.102C37.1833 21.914 37.3633 21.66 37.4793 21.34C37.5993 21.016 37.6593 20.656 37.6593 20.26C37.6593 19.868 37.5993 19.512 37.4793 19.192C37.3593 18.868 37.1733 18.612 36.9213 18.424C36.6693 18.232 36.3493 18.136 35.9613 18.136C35.5933 18.136 35.2933 18.226 35.0613 18.406C34.8293 18.582 34.6573 18.83 34.5453 19.15C34.4373 19.466 34.3833 19.836 34.3833 20.26C34.3833 20.68 34.4373 21.05 34.5453 21.37C34.6573 21.69 34.8313 21.94 35.0673 22.12C35.3073 22.296 35.6213 22.384 36.0093 22.384ZM41.1295 26.38L42.3775 22.954L42.4015 23.962L39.5755 17.02H41.0815L43.0855 22.156H42.7015L44.6515 17.02H46.0975L42.4855 26.38H41.1295Z" fill="#1261AC"/>
<path d="M68.3337 19.7498V23.2498C68.3337 26.1665 67.167 27.3332 64.2503 27.3332H60.7503C57.8337 27.3332 56.667 26.1665 56.667 23.2498V19.7498C56.667 16.8332 57.8337 15.6665 60.7503 15.6665H64.2503C67.167 15.6665 68.3337 16.8332 68.3337 19.7498Z" stroke="#1261AC" strokeWidth="1.5" strokeLinecap="round" strokeLinejoin="round"/>
<path d="M73.3337 14.7498V18.2498C73.3337 21.1665 72.167 22.3332 69.2503 22.3332H68.3337V19.7498C68.3337 16.8332 67.167 15.6665 64.2503 15.6665H61.667V14.7498C61.667 11.8332 62.8337 10.6665 65.7503 10.6665H69.2503C72.167 10.6665 73.3337 11.8332 73.3337 14.7498Z" stroke="#1261AC" strokeWidth="1.5" strokeLinecap="round" strokeLinejoin="round"/>
</g>
<defs>
<filter id="filter0_d_1034_6835" x="0" y="0" width="91" height="40" filterUnits="userSpaceOnUse" color-interpolation-filters="sRGB">
<feFlood flood-opacity="0" result="BackgroundImageFix"/>
<feColorMatrix in="SourceAlpha" type="matrix" values="0 0 0 0 0 0 0 0 0 0 0 0 0 0 0 0 0 0 127 0" result="hardAlpha"/>
<feOffset dy="1"/>
<feGaussianBlur stdDeviation="1"/>
<feColorMatrix type="matrix" values="0 0 0 0 0.0627451 0 0 0 0 0.0941176 0 0 0 0 0.156863 0 0 0 0.05 0"/>
<feBlend mode="normal" in2="BackgroundImageFix" result="effect1_dropShadow_1034_6835"/>
<feBlend mode="normal" in="SourceGraphic" in2="effect1_dropShadow_1034_6835" result="shape"/>
</filter>
</defs>
</svg>
