<svg width="32" height="32" viewBox="0 0 32 32" fill="none" xmlns="http://www.w3.org/2000/svg">
<g clip-path="url(#clip0_177_8325)">
<path opacity="0.1" d="M22.7153 0H9.30063C3.47373 0 0 3.472 0 9.296V22.688C0 28.528 3.47373 32 9.30063 32H22.6993C28.5262 32 31.9999 28.528 31.9999 22.704V9.296C32.016 3.472 28.5422 0 22.7153 0Z" fill="#DC2626"/>
<path fill-rule="evenodd" clip-rule="evenodd" d="M10.2839 10.2957C10.4658 10.1139 10.7124 10.0118 10.9695 10.0118C11.2266 10.0118 11.4732 10.1139 11.6551 10.2957L15.818 14.4586L19.9809 10.2957C20.0703 10.2031 20.1773 10.1292 20.2956 10.0784C20.4139 10.0276 20.5412 10.0009 20.6699 9.99973C20.7987 9.99861 20.9264 10.0231 21.0456 10.0719C21.1647 10.1207 21.273 10.1927 21.3641 10.2837C21.4551 10.3748 21.5271 10.483 21.5759 10.6022C21.6246 10.7214 21.6492 10.8491 21.648 10.9778C21.6469 11.1066 21.6202 11.2338 21.5693 11.3521C21.5185 11.4704 21.4446 11.5774 21.352 11.6669L17.1891 15.8298L21.352 19.9927C21.5287 20.1756 21.6264 20.4205 21.6242 20.6748C21.622 20.929 21.52 21.1723 21.3402 21.352C21.1604 21.5318 20.9172 21.6338 20.663 21.636C20.4087 21.6382 20.1638 21.5405 19.9809 21.3639L15.818 17.2009L11.6551 21.3639C11.4722 21.5405 11.2272 21.6382 10.973 21.636C10.7187 21.6338 10.4755 21.5318 10.2957 21.352C10.1159 21.1723 10.014 20.929 10.0117 20.6748C10.0095 20.4205 10.1073 20.1756 10.2839 19.9927L14.4468 15.8298L10.2839 11.6669C10.1021 11.485 10 11.2384 10 10.9813C10 10.7242 10.1021 10.4776 10.2839 10.2957Z" fill="#DC2626"/>
</g>
<defs>
<clipPath id="clip0_177_8325">
<rect width="32" height="32" rx="12" fill="white"/>
</clipPath>
</defs>
</svg>
