<svg width="16" height="17" viewBox="0 0 16 17" fill="none" xmlns="http://www.w3.org/2000/svg">
<path d="M9.68661 6.81333L6.31328 10.1867C5.87995 9.75333 5.61328 9.15999 5.61328 8.49999C5.61328 7.17999 6.67995 6.11333 7.99995 6.11333C8.65995 6.11333 9.25328 6.37999 9.68661 6.81333Z" stroke="#B8B8B8" strokeWidth="1.5" strokeLinecap="round" strokeLinejoin="round"/>
<path d="M11.8799 4.34666C10.7132 3.46666 9.3799 2.98666 7.9999 2.98666C5.64656 2.98666 3.45323 4.37333 1.92656 6.77333C1.32656 7.71333 1.32656 9.29333 1.92656 10.2333C2.45323 11.06 3.06656 11.7733 3.73323 12.3467" stroke="#B8B8B8" strokeWidth="1.5" strokeLinecap="round" strokeLinejoin="round"/>
<path d="M5.61328 13.52C6.37328 13.84 7.17995 14.0133 7.99995 14.0133C10.3533 14.0133 12.5466 12.6267 14.0733 10.2267C14.6733 9.28667 14.6733 7.70667 14.0733 6.76667C13.8533 6.42 13.6133 6.09333 13.3666 5.78667" stroke="#B8B8B8" strokeWidth="1.5" strokeLinecap="round" strokeLinejoin="round"/>
<path d="M10.3402 8.9668C10.1669 9.9068 9.40021 10.6735 8.46021 10.8468" stroke="#B8B8B8" strokeWidth="1.5" strokeLinecap="round" strokeLinejoin="round"/>
<path d="M6.31325 10.1867L1.33325 15.1667" stroke="#B8B8B8" strokeWidth="1.5" strokeLinecap="round" strokeLinejoin="round"/>
<path d="M14.6668 1.83333L9.68677 6.81333" stroke="#B8B8B8" strokeWidth="1.5" strokeLinecap="round" strokeLinejoin="round"/>
</svg>
