<svg width="126" height="152" viewBox="0 0 126 152" fill="none" xmlns="http://www.w3.org/2000/svg">
<path d="M120.918 122.477L69.7898 152L12.2148 118.679L63.3433 89.1636L120.918 122.477Z" fill="#1261AC"/>
<path opacity="0.5" d="M120.918 122.477L69.7898 152L12.2148 118.679L63.3433 89.1636L120.918 122.477Z" fill="black"/>
<path d="M63.3433 49.1467V89.1636L12.2148 118.679V78.669L63.3433 49.1467Z" fill="#1261AC"/>
<path opacity="0.23" d="M63.3433 49.1467V89.1636L12.2148 118.679V78.669L63.3433 49.1467Z" fill="black"/>
<path d="M69.7898 111.983V152L12.2148 118.679V78.6689L69.7898 111.983Z" fill="#1261AC"/>
<path opacity="0.38" d="M69.7898 111.983V152L12.2148 118.679V78.6689L69.7898 111.983Z" fill="black"/>
<path d="M120.923 82.4606V122.478L63.3477 89.1636V49.1467L120.923 82.4606Z" fill="#1261AC"/>
<path opacity="0.4" d="M120.923 82.4606V122.478L63.3477 89.1636V49.1467L120.923 82.4606Z" fill="black"/>
<path d="M120.921 122.478V82.4607L69.793 111.983V152L120.921 122.478Z" fill="#1261AC"/>
<path opacity="0.23" d="M120.921 122.478V82.4607L69.793 111.983V152L120.921 122.478Z" fill="black"/>
<path d="M63.3477 49.1467L63.417 26.9929L120.853 60.3484L120.923 82.4607L63.3477 49.1467Z" fill="#1261AC"/>
<path opacity="0.2" d="M63.3477 49.1467L63.417 26.9929L120.853 60.3484L120.923 82.4607L63.3477 49.1467Z" fill="black"/>
<path d="M69.793 111.983L74.5897 92.6018L125.254 63.3499L120.921 82.4606L69.793 111.983Z" fill="#1261AC"/>
<path opacity="0.3" d="M69.793 111.983L74.5897 92.6018L125.254 63.3499L120.921 82.4606L69.793 111.983Z" fill="black"/>
<path d="M12.2171 78.6689L6.11719 58.5668L57.2457 29.0515L63.3456 49.1466L12.2171 78.6689Z" fill="#1261AC"/>
<path opacity="0.1" d="M12.2171 78.6689L6.11719 58.5668L57.2457 29.0515L63.3456 49.1466L12.2171 78.6689Z" fill="black"/>
<path d="M12.2171 78.6691L0.183594 62.0537L57.7655 95.3676L69.7921 111.983L12.2171 78.6691Z" fill="#1261AC"/>
<path opacity="0.45" d="M12.2171 78.6691L0.183594 62.0537L57.7655 95.3676L69.7921 111.983L12.2171 78.6691Z" fill="black"/>
<g opacity="0.7">
<path d="M84.8462 140.098C84.7628 140.098 84.6828 140.065 84.6232 140.007C84.5635 139.949 84.5292 139.869 84.5273 139.786V132.743C84.5291 132.659 84.5633 132.579 84.6227 132.52C84.6821 132.46 84.7622 132.426 84.8462 132.424C84.9296 132.426 85.0089 132.461 85.0672 132.52C85.1255 132.58 85.1582 132.66 85.1581 132.743V139.786C85.1581 139.869 85.1253 139.948 85.0668 140.007C85.0083 140.065 84.9289 140.098 84.8462 140.098Z" fill="white"/>
<path d="M83.9234 135.183C83.8821 135.19 83.84 135.19 83.7987 135.183C83.723 135.148 83.6636 135.086 83.6327 135.008C83.6017 134.931 83.6016 134.845 83.6323 134.767L84.7553 132.182L86.003 133.624C86.0476 133.688 86.0669 133.767 86.0571 133.845C86.0473 133.923 86.0092 133.994 85.95 134.046C85.8907 134.097 85.8146 134.125 85.7362 134.124C85.6577 134.123 85.5824 134.093 85.5247 134.039L84.9355 133.346L84.2423 135.01C84.2123 135.067 84.166 135.114 84.1092 135.145C84.0525 135.176 83.9878 135.189 83.9234 135.183Z" fill="white"/>
<path d="M87.7494 138.441C87.6661 138.439 87.5867 138.405 87.5284 138.345C87.4701 138.286 87.4375 138.206 87.4375 138.122V131.087C87.4375 131.004 87.4704 130.925 87.5289 130.866C87.5874 130.808 87.6667 130.775 87.7494 130.775C87.8322 130.775 87.9115 130.808 87.97 130.866C88.0285 130.925 88.0614 131.004 88.0614 131.087V138.115C88.0623 138.157 88.0549 138.199 88.0398 138.238C88.0246 138.277 88.0019 138.313 87.9729 138.343C87.9439 138.373 87.9093 138.397 87.8709 138.414C87.8326 138.431 87.7913 138.44 87.7494 138.441Z" fill="white"/>
<path d="M86.8281 133.527C86.7868 133.533 86.7447 133.533 86.7033 133.527C86.6653 133.51 86.6309 133.486 86.6022 133.456C86.5736 133.426 86.5511 133.391 86.5363 133.352C86.5214 133.313 86.5145 133.272 86.5158 133.231C86.5171 133.189 86.5266 133.148 86.5439 133.111L87.6599 130.49L88.9076 131.925C88.9652 131.985 88.9974 132.064 88.9974 132.147C88.9974 132.23 88.9652 132.309 88.9076 132.369C88.8786 132.398 88.8441 132.422 88.806 132.438C88.7679 132.453 88.7271 132.462 88.6858 132.462C88.6445 132.462 88.6037 132.453 88.5656 132.438C88.5275 132.422 88.493 132.398 88.464 132.369L87.8748 131.676L87.1816 133.339C87.1529 133.406 87.1022 133.461 87.0379 133.495C86.9736 133.529 86.8995 133.54 86.8281 133.527Z" fill="white"/>
</g>
<g opacity="0.7">
<path d="M76.4649 144.874C76.3464 144.876 76.2295 144.847 76.1253 144.791C75.9999 144.71 75.8984 144.598 75.8314 144.465C75.7643 144.332 75.7341 144.184 75.744 144.035V143.169C75.7458 143.085 75.7802 143.006 75.8398 142.948C75.8994 142.889 75.9795 142.857 76.0629 142.857C76.1456 142.857 76.2249 142.89 76.2834 142.948C76.3419 143.007 76.3748 143.086 76.3748 143.169V144.035C76.3748 144.16 76.3748 144.229 76.4372 144.243C76.4996 144.257 76.5342 144.243 76.6382 144.188C76.8333 144.008 76.987 143.787 77.0887 143.542C77.1904 143.297 77.2378 143.032 77.2274 142.767V139.162C77.2274 139.079 77.2603 139 77.3188 138.942C77.3773 138.883 77.4566 138.85 77.5393 138.85C77.6221 138.85 77.7014 138.883 77.7599 138.942C77.8184 139 77.8513 139.079 77.8513 139.162V142.767C77.8668 143.141 77.7939 143.514 77.6385 143.854C77.4832 144.195 77.2497 144.495 76.9571 144.728C76.8089 144.82 76.639 144.87 76.4649 144.874Z" fill="white"/>
<path d="M73.1602 141.97V141.429C73.2425 140.041 73.6484 138.691 74.3452 137.487C75.0421 136.284 76.0106 135.26 77.1736 134.497C78.3104 133.846 79.3918 133.748 80.2236 134.234C80.6672 134.538 81.021 134.956 81.2478 135.444C81.4746 135.931 81.5662 136.471 81.5129 137.006V137.187L73.1602 141.97ZM79.0591 134.525C78.504 134.55 77.9648 134.717 77.4925 135.01C76.4959 135.666 75.6521 136.528 75.0182 137.539C74.3843 138.55 73.9752 139.685 73.8187 140.867L80.8682 136.792C80.8983 136.39 80.8242 135.988 80.6529 135.623C80.4817 135.259 80.2192 134.945 79.8909 134.712C79.6348 134.578 79.3479 134.513 79.0591 134.525Z" fill="white"/>
</g>
<path opacity="0.7" d="M0.183594 62.0537L57.7655 95.3676L69.7921 111.983L57.1278 95.9568L0.183594 62.0537Z" fill="white"/>
<path opacity="0.7" d="M120.921 82.4607L69.793 111.983V152L70.7495 112.787L120.921 82.4607Z" fill="white"/>
<path d="M45.8886 66.4552C51.1637 65.6928 55.9812 62.2962 59.0589 58.0263C60.4942 56.0312 61.5514 53.7898 62.1782 51.4134C62.8438 49.1911 62.9533 46.8393 62.497 44.5648C61.5474 40.7593 58.0261 38.5065 54.3037 38.0351C52.4149 37.7866 50.4942 37.974 48.689 38.5827C46.8172 39.2251 45.1933 40.437 44.0448 42.0486C43.3246 42.9072 42.8716 43.9578 42.7416 45.0708C42.7305 45.5068 42.8842 45.9309 43.172 46.2585C43.4598 46.5861 43.8606 46.7932 44.2943 46.8384C45.4105 46.9325 46.5259 46.6493 47.4621 46.0344C48.6037 45.3942 49.6092 44.5371 50.422 43.5112C52.1655 41.3594 53.4702 38.8867 54.2621 36.2329C54.8179 33.9557 54.8179 31.5783 54.2621 29.3011C53.84 26.9191 52.7512 24.7054 51.1221 22.917C49.2544 21.2186 46.8844 20.1747 44.3706 19.9433C41.8687 19.5996 39.3213 19.8368 36.9259 20.6365C35.8737 20.9555 34.899 21.4889 34.0631 22.203C33.4669 22.7576 32.7876 23.6726 33.0302 24.5737C33.2728 25.4748 34.5899 25.8769 35.4841 25.759C36.8075 25.511 38.0197 24.854 38.9499 23.8805C39.9866 22.86 40.8672 21.6921 41.5632 20.4147C42.0803 19.4966 42.3502 18.46 42.3465 17.4063C42.2564 13.0116 37.3972 10.1696 33.5917 9.36547C32.5644 9.15086 31.5122 9.08088 30.4655 9.15753C30.112 9.15753 30.3269 9.73979 30.6111 9.719C32.6589 9.62594 34.694 10.0856 36.503 11.0499C38.2878 11.8702 39.7868 13.205 40.8076 14.8831C41.2626 15.7105 41.4872 16.6447 41.4579 17.5885C41.4286 18.5322 41.1466 19.4508 40.6413 20.2483C39.9625 21.4305 39.1175 22.509 38.132 23.4508C37.3071 24.1994 36.0525 25.0659 34.8949 24.9827C34.7038 24.9822 34.5166 24.9281 34.3548 24.8263C34.193 24.7246 34.0631 24.5794 33.9799 24.4073C33.945 24.1797 33.9637 23.9471 34.0348 23.7281C34.1058 23.509 34.227 23.3096 34.3889 23.1458C35.001 22.4866 35.758 21.9787 36.6001 21.6624C38.6796 20.7979 40.9314 20.4278 43.1783 20.581C45.4938 20.6229 47.7457 21.3462 49.6525 22.6605C51.3137 24.0398 52.4934 25.9113 53.0214 28.0049C53.6901 30.1317 53.8981 32.3766 53.6313 34.5901C53.2197 36.8173 52.364 38.939 51.1151 40.8286C49.8328 42.9497 48.2246 44.9877 45.8124 45.8195C45.2162 46.0344 43.9685 46.3463 43.7328 45.4798C43.4972 44.6133 44.1765 43.5459 44.6132 42.8735C45.5788 41.3537 46.9867 40.1659 48.6474 39.47C50.25 38.8277 51.9799 38.5666 53.7007 38.7075C56.9655 38.9501 60.2789 40.6553 61.4157 43.8994C61.9859 45.8381 62.048 47.891 61.5959 49.8607C61.1881 52.0197 60.412 54.0924 59.3015 55.9883C56.9128 60.0166 53.2952 63.1726 48.9802 64.9927C47.9543 65.4363 46.9006 65.8106 45.8262 66.1572C45.7153 66.1988 45.7638 66.476 45.8886 66.4552Z" fill="#E0E0E0"/>
<path d="M23.8528 6.27393C21.0801 6.07291 17.2607 8.25641 18.6193 9.85071C19.978 11.445 23.5825 8.86639 23.5825 8.86639C23.5825 8.86639 23.2428 12.0897 24.4212 12.457C25.5996 12.8244 27.1939 9.74673 26.0155 7.77812C26.5838 8.00216 27.1995 8.07896 27.8054 8.00141C28.4113 7.92385 28.9878 7.69444 29.4814 7.33449C31.1588 6.10064 29.3843 4.9361 27.0206 5.14405C27.0206 5.14405 28.7119 -0.401335 25.2946 0.659221C23.5825 1.1791 22.9794 3.18238 23.8528 6.27393Z" fill="#1261AC"/>
<path opacity="0.65" d="M23.8528 6.27393C21.0801 6.07291 17.2607 8.25641 18.6193 9.85071C19.978 11.445 23.5825 8.86639 23.5825 8.86639C23.5825 8.86639 23.2428 12.0897 24.4212 12.457C25.5996 12.8244 27.1939 9.74673 26.0155 7.77812C26.5838 8.00216 27.1995 8.07896 27.8054 8.00141C28.4113 7.92385 28.9878 7.69444 29.4814 7.33449C31.1588 6.10064 29.3843 4.9361 27.0206 5.14405C27.0206 5.14405 28.7119 -0.401335 25.2946 0.659221C23.5825 1.1791 22.9794 3.18238 23.8528 6.27393Z" fill="white"/>
<path d="M26.4287 7.45227C26.2753 7.30205 26.1133 7.16087 25.9435 7.02943C25.7009 6.84228 25.4444 6.66206 25.2018 6.48183C24.9656 6.31008 24.7178 6.15489 24.4601 6.0174C24.3118 5.9351 24.1591 5.86105 24.0026 5.79559C23.7866 5.69415 23.5464 5.6557 23.3095 5.68468C23.2474 5.68643 23.1869 5.70483 23.1344 5.73795C23.0819 5.77108 23.0392 5.81772 23.0108 5.87298C22.9825 5.92824 22.9695 5.9901 22.9733 6.05209C22.977 6.11408 22.9974 6.17391 23.0322 6.22535C23.2228 6.43178 23.4606 6.58879 23.7254 6.68285L24.0997 6.88386C24.3562 7.03636 24.5849 7.20966 24.7929 7.38295C25.0008 7.55624 25.2781 7.72261 25.486 7.8959C25.8436 8.18589 26.2433 8.41964 26.6714 8.58907C26.6905 8.59939 26.712 8.60479 26.7337 8.60479C26.7555 8.60479 26.7769 8.59939 26.7961 8.58907C27.1496 8.31181 26.6298 7.65329 26.4287 7.45227Z" fill="#455A64"/>
</svg>
