<svg width="833" height="450" viewBox="0 0 833 450" fill="none" xmlns="http://www.w3.org/2000/svg">
<g clip-path="url(#clip0_730_25478)">
<path d="M21.992 34.24C20.84 34.24 19.8533 33.9893 19.032 33.488C18.2107 32.9813 17.5787 32.2773 17.136 31.376C16.6987 30.4747 16.48 29.4293 16.48 28.24C16.48 27.0507 16.6987 26.0053 17.136 25.104C17.5787 24.2027 18.2107 23.5013 19.032 23C19.8533 22.4933 20.84 22.24 21.992 22.24C23.32 22.24 24.4267 22.5733 25.312 23.24C26.1973 23.9013 26.8187 24.7947 27.176 25.92L25.232 26.456C25.008 25.704 24.6267 25.1173 24.088 24.696C23.5493 24.2693 22.8507 24.056 21.992 24.056C21.2187 24.056 20.5733 24.2293 20.056 24.576C19.544 24.9227 19.1573 25.4107 18.896 26.04C18.64 26.664 18.5093 27.3973 18.504 28.24C18.504 29.0827 18.632 29.8187 18.888 30.448C19.1493 31.072 19.5387 31.5573 20.056 31.904C20.5733 32.2507 21.2187 32.424 21.992 32.424C22.8507 32.424 23.5493 32.2107 24.088 31.784C24.6267 31.3573 25.008 30.7707 25.232 30.024L27.176 30.56C26.8187 31.6853 26.1973 32.5813 25.312 33.248C24.4267 33.9093 23.32 34.24 21.992 34.24ZM34.7485 34V29.84C34.7485 29.568 34.7298 29.2667 34.6925 28.936C34.6552 28.6053 34.5672 28.288 34.4285 27.984C34.2952 27.6747 34.0925 27.4213 33.8205 27.224C33.5538 27.0267 33.1912 26.928 32.7325 26.928C32.4872 26.928 32.2445 26.968 32.0045 27.048C31.7645 27.128 31.5458 27.2667 31.3485 27.464C31.1565 27.656 31.0018 27.9227 30.8845 28.264C30.7672 28.6 30.7085 29.032 30.7085 29.56L29.5645 29.072C29.5645 28.336 29.7058 27.6693 29.9885 27.072C30.2765 26.4747 30.6978 26 31.2525 25.648C31.8072 25.2907 32.4898 25.112 33.3005 25.112C33.9405 25.112 34.4685 25.2187 34.8845 25.432C35.3005 25.6453 35.6312 25.9173 35.8765 26.248C36.1218 26.5787 36.3032 26.9307 36.4205 27.304C36.5378 27.6773 36.6125 28.032 36.6445 28.368C36.6818 28.6987 36.7005 28.968 36.7005 29.176V34H34.7485ZM28.7565 34V22.48H30.4765V28.544H30.7085V34H28.7565ZM41.0441 34.24C40.4201 34.24 39.8921 34.1227 39.4601 33.888C39.0281 33.648 38.7001 33.3307 38.4761 32.936C38.2575 32.5413 38.1481 32.1067 38.1481 31.632C38.1481 31.216 38.2175 30.8427 38.3561 30.512C38.4948 30.176 38.7081 29.888 38.9961 29.648C39.2841 29.4027 39.6575 29.2027 40.1161 29.048C40.4628 28.936 40.8681 28.8347 41.3321 28.744C41.8015 28.6533 42.3081 28.5707 42.8521 28.496C43.4015 28.416 43.9748 28.3307 44.5721 28.24L43.8841 28.632C43.8895 28.0347 43.7561 27.5947 43.4841 27.312C43.2121 27.0293 42.7535 26.888 42.1081 26.888C41.7188 26.888 41.3428 26.9787 40.9801 27.16C40.6175 27.3413 40.3641 27.6533 40.2201 28.096L38.4601 27.544C38.6735 26.8133 39.0788 26.2267 39.6761 25.784C40.2788 25.3413 41.0895 25.12 42.1081 25.12C42.8761 25.12 43.5508 25.2453 44.1321 25.496C44.7188 25.7467 45.1535 26.1573 45.4361 26.728C45.5908 27.032 45.6841 27.344 45.7161 27.664C45.7481 27.9787 45.7641 28.3227 45.7641 28.696V34H44.0761V32.128L44.3561 32.432C43.9668 33.056 43.5108 33.5147 42.9881 33.808C42.4708 34.096 41.8228 34.24 41.0441 34.24ZM41.4281 32.704C41.8655 32.704 42.2388 32.6267 42.5481 32.472C42.8575 32.3173 43.1028 32.128 43.2841 31.904C43.4708 31.68 43.5961 31.4693 43.6601 31.272C43.7615 31.0267 43.8175 30.7467 43.8281 30.432C43.8441 30.112 43.8521 29.8533 43.8521 29.656L44.4441 29.832C43.8628 29.9227 43.3641 30.0027 42.9481 30.072C42.5321 30.1413 42.1748 30.208 41.8761 30.272C41.5775 30.3307 41.3135 30.3973 41.0841 30.472C40.8601 30.552 40.6708 30.6453 40.5161 30.752C40.3615 30.8587 40.2415 30.9813 40.1561 31.12C40.0761 31.2587 40.0361 31.4213 40.0361 31.608C40.0361 31.8213 40.0895 32.0107 40.1961 32.176C40.3028 32.336 40.4575 32.464 40.6601 32.56C40.8681 32.656 41.1241 32.704 41.4281 32.704ZM52.7509 34C52.1802 34.1067 51.6202 34.152 51.0709 34.136C50.5269 34.1253 50.0389 34.0267 49.6069 33.84C49.1749 33.648 48.8469 33.3467 48.6229 32.936C48.4255 32.5627 48.3215 32.1813 48.3109 31.792C48.3002 31.4027 48.2949 30.9627 48.2949 30.472V22.96H50.2149V30.36C50.2149 30.7067 50.2175 31.0107 50.2229 31.272C50.2335 31.5333 50.2895 31.7467 50.3909 31.912C50.5829 32.232 50.8895 32.4107 51.3109 32.448C51.7322 32.4853 52.2122 32.464 52.7509 32.384V34ZM46.7269 26.872V25.36H52.7509V26.872H46.7269ZM57.7848 34.24C56.7181 34.24 55.8514 34 55.1848 33.52C54.5181 33.04 54.1128 32.3653 53.9688 31.496L55.9368 31.192C56.0381 31.6187 56.2621 31.9547 56.6088 32.2C56.9554 32.4453 57.3928 32.568 57.9208 32.568C58.3848 32.568 58.7421 32.4773 58.9928 32.296C59.2488 32.1093 59.3768 31.856 59.3768 31.536C59.3768 31.3387 59.3288 31.1813 59.2328 31.064C59.1421 30.9413 58.9394 30.824 58.6248 30.712C58.3101 30.6 57.8274 30.4587 57.1768 30.288C56.4514 30.096 55.8754 29.8907 55.4488 29.672C55.0221 29.448 54.7154 29.184 54.5288 28.88C54.3421 28.576 54.2488 28.208 54.2488 27.776C54.2488 27.2373 54.3901 26.768 54.6728 26.368C54.9554 25.968 55.3501 25.6613 55.8568 25.448C56.3634 25.2293 56.9608 25.12 57.6488 25.12C58.3208 25.12 58.9154 25.224 59.4328 25.432C59.9554 25.64 60.3768 25.936 60.6968 26.32C61.0168 26.704 61.2141 27.1547 61.2888 27.672L59.3208 28.024C59.2728 27.656 59.1048 27.3653 58.8168 27.152C58.5341 26.9387 58.1554 26.8187 57.6808 26.792C57.2274 26.7653 56.8621 26.8347 56.5848 27C56.3074 27.16 56.1688 27.3867 56.1688 27.68C56.1688 27.8453 56.2248 27.9867 56.3368 28.104C56.4488 28.2213 56.6728 28.3387 57.0088 28.456C57.3501 28.5733 57.8568 28.7173 58.5288 28.888C59.2168 29.064 59.7661 29.2667 60.1768 29.496C60.5928 29.72 60.8914 29.9893 61.0728 30.304C61.2594 30.6187 61.3528 31 61.3528 31.448C61.3528 32.3173 61.0354 33 60.4008 33.496C59.7714 33.992 58.8994 34.24 57.7848 34.24Z" fill="#101828"/>
<path d="M53.7776 114V112.572H49.9496V111.222L52.7156 105.36H54.3656L51.5996 111.222H53.7776V108.972H55.2416V111.222H56.0516V112.572H55.2416V114H53.7776Z" fill="#101828"/>
<path d="M53.3257 178.162C52.8937 178.162 52.4857 178.078 52.1017 177.91C51.7177 177.742 51.3837 177.504 51.0997 177.196C50.8197 176.888 50.6177 176.524 50.4937 176.104L51.8917 175.726C51.9917 176.07 52.1737 176.336 52.4377 176.524C52.7057 176.708 52.9997 176.798 53.3197 176.794C53.6037 176.794 53.8577 176.728 54.0817 176.596C54.3057 176.464 54.4817 176.286 54.6097 176.062C54.7377 175.834 54.8017 175.58 54.8017 175.3C54.8017 174.872 54.6637 174.514 54.3877 174.226C54.1117 173.938 53.7557 173.794 53.3197 173.794C53.1877 173.794 53.0577 173.812 52.9297 173.848C52.8057 173.884 52.6857 173.934 52.5697 173.998L51.9097 172.858L54.8137 170.374L54.9397 170.722H50.8297V169.36H56.1277V170.728L53.7937 172.972L53.7817 172.546C54.3057 172.582 54.7517 172.728 55.1197 172.984C55.4917 173.24 55.7757 173.57 55.9717 173.974C56.1717 174.378 56.2717 174.82 56.2717 175.3C56.2717 175.844 56.1377 176.332 55.8697 176.764C55.6057 177.196 55.2497 177.538 54.8017 177.79C54.3577 178.038 53.8657 178.162 53.3257 178.162Z" fill="#101828"/>
<path d="M50.0258 241.988V240.728L53.7218 237.434C54.0098 237.178 54.2098 236.936 54.3218 236.708C54.4338 236.48 54.4898 236.26 54.4898 236.048C54.4898 235.76 54.4278 235.504 54.3038 235.28C54.1798 235.052 54.0078 234.872 53.7878 234.74C53.5718 234.608 53.3218 234.542 53.0378 234.542C52.7378 234.542 52.4718 234.612 52.2398 234.752C52.0118 234.888 51.8338 235.07 51.7058 235.298C51.5778 235.526 51.5178 235.772 51.5258 236.036H50.0378C50.0378 235.46 50.1658 234.958 50.4218 234.53C50.6818 234.102 51.0378 233.77 51.4898 233.534C51.9458 233.298 52.4718 233.18 53.0678 233.18C53.6198 233.18 54.1158 233.304 54.5558 233.552C54.9958 233.796 55.3418 234.136 55.5938 234.572C55.8458 235.004 55.9718 235.502 55.9718 236.066C55.9718 236.478 55.9158 236.824 55.8038 237.104C55.6918 237.384 55.5238 237.642 55.2998 237.878C55.0798 238.114 54.8058 238.376 54.4778 238.664L51.8558 240.986L51.7238 240.626H55.9718V241.988H50.0258Z" fill="#101828"/>
<path d="M116.832 382.988V381.728L120.528 378.434C120.816 378.178 121.016 377.936 121.128 377.708C121.24 377.48 121.296 377.26 121.296 377.048C121.296 376.76 121.234 376.504 121.11 376.28C120.986 376.052 120.814 375.872 120.594 375.74C120.378 375.608 120.128 375.542 119.844 375.542C119.544 375.542 119.278 375.612 119.046 375.752C118.818 375.888 118.64 376.07 118.512 376.298C118.384 376.526 118.324 376.772 118.332 377.036H116.844C116.844 376.46 116.972 375.958 117.228 375.53C117.488 375.102 117.844 374.77 118.296 374.534C118.752 374.298 119.278 374.18 119.874 374.18C120.426 374.18 120.922 374.304 121.362 374.552C121.802 374.796 122.148 375.136 122.4 375.572C122.652 376.004 122.778 376.502 122.778 377.066C122.778 377.478 122.722 377.824 122.61 378.104C122.498 378.384 122.33 378.642 122.106 378.878C121.886 379.114 121.612 379.376 121.284 379.664L118.662 381.986L118.53 381.626H122.778V382.988H116.832ZM126.428 374.36H127.88L125.576 383H124.124L126.428 374.36ZM129.22 382.988V381.728L132.916 378.434C133.204 378.178 133.404 377.936 133.516 377.708C133.628 377.48 133.684 377.26 133.684 377.048C133.684 376.76 133.622 376.504 133.498 376.28C133.374 376.052 133.202 375.872 132.982 375.74C132.766 375.608 132.516 375.542 132.232 375.542C131.932 375.542 131.666 375.612 131.434 375.752C131.206 375.888 131.028 376.07 130.9 376.298C130.772 376.526 130.712 376.772 130.72 377.036H129.232C129.232 376.46 129.36 375.958 129.616 375.53C129.876 375.102 130.232 374.77 130.684 374.534C131.14 374.298 131.666 374.18 132.262 374.18C132.814 374.18 133.31 374.304 133.75 374.552C134.19 374.796 134.536 375.136 134.788 375.572C135.04 376.004 135.166 376.502 135.166 377.066C135.166 377.478 135.11 377.824 134.998 378.104C134.886 378.384 134.718 378.642 134.494 378.878C134.274 379.114 134 379.376 133.672 379.664L131.05 381.986L130.918 381.626H135.166V382.988H129.22Z" fill="#101828"/>
<path d="M221.68 382.988V381.728L225.376 378.434C225.664 378.178 225.864 377.936 225.976 377.708C226.088 377.48 226.144 377.26 226.144 377.048C226.144 376.76 226.082 376.504 225.958 376.28C225.834 376.052 225.662 375.872 225.442 375.74C225.226 375.608 224.976 375.542 224.692 375.542C224.392 375.542 224.126 375.612 223.894 375.752C223.666 375.888 223.488 376.07 223.36 376.298C223.232 376.526 223.172 376.772 223.18 377.036H221.692C221.692 376.46 221.82 375.958 222.076 375.53C222.336 375.102 222.692 374.77 223.144 374.534C223.6 374.298 224.126 374.18 224.722 374.18C225.274 374.18 225.77 374.304 226.21 374.552C226.65 374.796 226.996 375.136 227.248 375.572C227.5 376.004 227.626 376.502 227.626 377.066C227.626 377.478 227.57 377.824 227.458 378.104C227.346 378.384 227.178 378.642 226.954 378.878C226.734 379.114 226.46 379.376 226.132 379.664L223.51 381.986L223.378 381.626H227.626V382.988H221.68ZM231.276 374.36H232.728L230.424 383H228.972L231.276 374.36ZM237.295 383.18C236.731 383.18 236.223 383.048 235.771 382.784C235.323 382.516 234.967 382.146 234.703 381.674C234.439 381.202 234.307 380.66 234.307 380.048V377.42C234.307 376.764 234.437 376.194 234.697 375.71C234.961 375.226 235.329 374.852 235.801 374.588C236.277 374.324 236.829 374.192 237.457 374.192C237.893 374.192 238.307 374.266 238.699 374.414C239.091 374.558 239.439 374.79 239.743 375.11L238.699 376.124C238.547 375.944 238.361 375.802 238.141 375.698C237.925 375.594 237.697 375.542 237.457 375.542C237.121 375.542 236.827 375.622 236.575 375.782C236.323 375.938 236.127 376.144 235.987 376.4C235.851 376.656 235.783 376.93 235.783 377.222V378.656L235.519 378.368C235.767 378.08 236.065 377.856 236.413 377.696C236.761 377.532 237.125 377.45 237.505 377.45C238.049 377.45 238.529 377.574 238.945 377.822C239.361 378.066 239.689 378.402 239.929 378.83C240.169 379.254 240.289 379.738 240.289 380.282C240.289 380.822 240.151 381.312 239.875 381.752C239.603 382.188 239.241 382.536 238.789 382.796C238.337 383.052 237.839 383.18 237.295 383.18ZM237.295 381.794C237.575 381.794 237.831 381.728 238.063 381.596C238.295 381.46 238.479 381.278 238.615 381.05C238.755 380.818 238.825 380.562 238.825 380.282C238.825 380.002 238.757 379.746 238.621 379.514C238.485 379.282 238.301 379.098 238.069 378.962C237.841 378.822 237.587 378.752 237.307 378.752C237.027 378.752 236.771 378.822 236.539 378.962C236.307 379.098 236.123 379.282 235.987 379.514C235.851 379.746 235.783 380.002 235.783 380.282C235.783 380.554 235.849 380.806 235.981 381.038C236.117 381.266 236.299 381.45 236.527 381.59C236.759 381.726 237.015 381.794 237.295 381.794Z" fill="#101828"/>
<path d="M326.814 382.988V381.728L330.51 378.434C330.798 378.178 330.998 377.936 331.11 377.708C331.222 377.48 331.278 377.26 331.278 377.048C331.278 376.76 331.216 376.504 331.092 376.28C330.968 376.052 330.796 375.872 330.576 375.74C330.36 375.608 330.11 375.542 329.826 375.542C329.526 375.542 329.26 375.612 329.028 375.752C328.8 375.888 328.622 376.07 328.494 376.298C328.366 376.526 328.306 376.772 328.314 377.036H326.826C326.826 376.46 326.954 375.958 327.21 375.53C327.47 375.102 327.826 374.77 328.278 374.534C328.734 374.298 329.26 374.18 329.856 374.18C330.408 374.18 330.904 374.304 331.344 374.552C331.784 374.796 332.13 375.136 332.382 375.572C332.634 376.004 332.76 376.502 332.76 377.066C332.76 377.478 332.704 377.824 332.592 378.104C332.48 378.384 332.312 378.642 332.088 378.878C331.868 379.114 331.594 379.376 331.266 379.664L328.644 381.986L328.512 381.626H332.76V382.988H326.814ZM336.41 374.36H337.862L335.558 383H334.106L336.41 374.36ZM340.942 383V375.938L339.322 376.928V375.332L340.942 374.36H342.418V383H340.942ZM347.836 383.18C347.224 383.18 346.684 383.05 346.216 382.79C345.748 382.526 345.382 382.16 345.118 381.692C344.858 381.224 344.728 380.684 344.728 380.072V377.288C344.728 376.676 344.858 376.136 345.118 375.668C345.382 375.2 345.748 374.836 346.216 374.576C346.684 374.312 347.224 374.18 347.836 374.18C348.448 374.18 348.986 374.312 349.45 374.576C349.918 374.836 350.284 375.2 350.548 375.668C350.812 376.136 350.944 376.676 350.944 377.288V380.072C350.944 380.684 350.812 381.224 350.548 381.692C350.284 382.16 349.918 382.526 349.45 382.79C348.986 383.05 348.448 383.18 347.836 383.18ZM347.836 381.806C348.14 381.806 348.416 381.734 348.664 381.59C348.912 381.442 349.108 381.246 349.252 381.002C349.396 380.754 349.468 380.478 349.468 380.174V377.18C349.468 376.872 349.396 376.596 349.252 376.352C349.108 376.104 348.912 375.908 348.664 375.764C348.416 375.616 348.14 375.542 347.836 375.542C347.532 375.542 347.256 375.616 347.008 375.764C346.76 375.908 346.564 376.104 346.42 376.352C346.276 376.596 346.204 376.872 346.204 377.18V380.174C346.204 380.478 346.276 380.754 346.42 381.002C346.564 381.246 346.76 381.442 347.008 381.59C347.256 381.734 347.532 381.806 347.836 381.806Z" fill="#101828"/>
<path d="M437.613 382.988V381.728L441.309 378.434C441.597 378.178 441.797 377.936 441.909 377.708C442.021 377.48 442.077 377.26 442.077 377.048C442.077 376.76 442.015 376.504 441.891 376.28C441.767 376.052 441.595 375.872 441.375 375.74C441.159 375.608 440.909 375.542 440.625 375.542C440.325 375.542 440.059 375.612 439.827 375.752C439.599 375.888 439.421 376.07 439.293 376.298C439.165 376.526 439.105 376.772 439.113 377.036H437.625C437.625 376.46 437.753 375.958 438.009 375.53C438.269 375.102 438.625 374.77 439.077 374.534C439.533 374.298 440.059 374.18 440.655 374.18C441.207 374.18 441.703 374.304 442.143 374.552C442.583 374.796 442.929 375.136 443.181 375.572C443.433 376.004 443.559 376.502 443.559 377.066C443.559 377.478 443.503 377.824 443.391 378.104C443.279 378.384 443.111 378.642 442.887 378.878C442.667 379.114 442.393 379.376 442.065 379.664L439.443 381.986L439.311 381.626H443.559V382.988H437.613ZM447.209 374.36H448.661L446.357 383H444.905L447.209 374.36ZM451.741 383V375.938L450.121 376.928V375.332L451.741 374.36H453.217V383H451.741ZM459.114 383V381.572H455.286V380.222L458.052 374.36H459.702L456.936 380.222H459.114V377.972H460.578V380.222H461.388V381.572H460.578V383H459.114Z" fill="#101828"/>
<path d="M548.089 382.988V381.728L551.785 378.434C552.073 378.178 552.273 377.936 552.385 377.708C552.497 377.48 552.553 377.26 552.553 377.048C552.553 376.76 552.491 376.504 552.367 376.28C552.243 376.052 552.071 375.872 551.851 375.74C551.635 375.608 551.385 375.542 551.101 375.542C550.801 375.542 550.535 375.612 550.303 375.752C550.075 375.888 549.897 376.07 549.769 376.298C549.641 376.526 549.581 376.772 549.589 377.036H548.101C548.101 376.46 548.229 375.958 548.485 375.53C548.745 375.102 549.101 374.77 549.553 374.534C550.009 374.298 550.535 374.18 551.131 374.18C551.683 374.18 552.179 374.304 552.619 374.552C553.059 374.796 553.405 375.136 553.657 375.572C553.909 376.004 554.035 376.502 554.035 377.066C554.035 377.478 553.979 377.824 553.867 378.104C553.755 378.384 553.587 378.642 553.363 378.878C553.143 379.114 552.869 379.376 552.541 379.664L549.919 381.986L549.787 381.626H554.035V382.988H548.089ZM557.686 374.36H559.138L556.834 383H555.382L557.686 374.36ZM562.217 383V375.938L560.597 376.928V375.332L562.217 374.36H563.693V383H562.217ZM568.829 383.18C568.257 383.18 567.749 383.064 567.305 382.832C566.861 382.6 566.513 382.278 566.261 381.866C566.009 381.454 565.883 380.982 565.883 380.45C565.883 379.974 565.993 379.532 566.213 379.124C566.433 378.716 566.755 378.39 567.179 378.146L567.149 378.608C566.817 378.356 566.559 378.066 566.375 377.738C566.195 377.406 566.105 377.034 566.105 376.622C566.105 376.126 566.221 375.696 566.453 375.332C566.689 374.968 567.011 374.686 567.419 374.486C567.827 374.282 568.297 374.18 568.829 374.18C569.361 374.18 569.831 374.282 570.239 374.486C570.651 374.686 570.973 374.968 571.205 375.332C571.441 375.696 571.559 376.126 571.559 376.622C571.559 377.034 571.471 377.404 571.295 377.732C571.123 378.06 570.861 378.356 570.509 378.62L570.503 378.152C570.919 378.388 571.237 378.712 571.457 379.124C571.681 379.532 571.793 379.974 571.793 380.45C571.793 380.982 571.665 381.454 571.409 381.866C571.157 382.278 570.807 382.6 570.359 382.832C569.915 383.064 569.405 383.18 568.829 383.18ZM568.829 381.818C569.253 381.818 569.597 381.702 569.861 381.47C570.129 381.238 570.263 380.898 570.263 380.45C570.263 380.002 570.131 379.662 569.867 379.43C569.603 379.194 569.257 379.076 568.829 379.076C568.405 379.076 568.063 379.194 567.803 379.43C567.543 379.662 567.413 380.002 567.413 380.45C567.413 380.898 567.543 381.238 567.803 381.47C568.063 381.702 568.405 381.818 568.829 381.818ZM568.829 377.702C569.185 377.702 569.473 377.614 569.693 377.438C569.917 377.258 570.029 376.986 570.029 376.622C570.029 376.258 569.917 375.988 569.693 375.812C569.473 375.632 569.185 375.542 568.829 375.542C568.477 375.542 568.189 375.632 567.965 375.812C567.745 375.988 567.635 376.258 567.635 376.622C567.635 376.986 567.745 377.258 567.965 377.438C568.189 377.614 568.477 377.702 568.829 377.702Z" fill="#101828"/>
<path d="M658.746 382.988V381.728L662.442 378.434C662.73 378.178 662.93 377.936 663.042 377.708C663.154 377.48 663.21 377.26 663.21 377.048C663.21 376.76 663.148 376.504 663.024 376.28C662.9 376.052 662.728 375.872 662.508 375.74C662.292 375.608 662.042 375.542 661.758 375.542C661.458 375.542 661.192 375.612 660.96 375.752C660.732 375.888 660.554 376.07 660.426 376.298C660.298 376.526 660.238 376.772 660.246 377.036H658.758C658.758 376.46 658.886 375.958 659.142 375.53C659.402 375.102 659.758 374.77 660.21 374.534C660.666 374.298 661.192 374.18 661.788 374.18C662.34 374.18 662.836 374.304 663.276 374.552C663.716 374.796 664.062 375.136 664.314 375.572C664.566 376.004 664.692 376.502 664.692 377.066C664.692 377.478 664.636 377.824 664.524 378.104C664.412 378.384 664.244 378.642 664.02 378.878C663.8 379.114 663.526 379.376 663.198 379.664L660.576 381.986L660.444 381.626H664.692V382.988H658.746ZM668.342 374.36H669.794L667.49 383H666.038L668.342 374.36ZM671.133 382.988V381.728L674.829 378.434C675.117 378.178 675.317 377.936 675.429 377.708C675.541 377.48 675.597 377.26 675.597 377.048C675.597 376.76 675.535 376.504 675.411 376.28C675.287 376.052 675.115 375.872 674.895 375.74C674.679 375.608 674.429 375.542 674.145 375.542C673.845 375.542 673.579 375.612 673.347 375.752C673.119 375.888 672.941 376.07 672.813 376.298C672.685 376.526 672.625 376.772 672.633 377.036H671.145C671.145 376.46 671.273 375.958 671.529 375.53C671.789 375.102 672.145 374.77 672.597 374.534C673.053 374.298 673.579 374.18 674.175 374.18C674.727 374.18 675.223 374.304 675.663 374.552C676.103 374.796 676.449 375.136 676.701 375.572C676.953 376.004 677.079 376.502 677.079 377.066C677.079 377.478 677.023 377.824 676.911 378.104C676.799 378.384 676.631 378.642 676.407 378.878C676.187 379.114 675.913 379.376 675.585 379.664L672.963 381.986L672.831 381.626H677.079V382.988H671.133ZM678.306 382.988V381.728L682.002 378.434C682.29 378.178 682.49 377.936 682.602 377.708C682.714 377.48 682.77 377.26 682.77 377.048C682.77 376.76 682.708 376.504 682.584 376.28C682.46 376.052 682.288 375.872 682.068 375.74C681.852 375.608 681.602 375.542 681.318 375.542C681.018 375.542 680.752 375.612 680.52 375.752C680.292 375.888 680.114 376.07 679.986 376.298C679.858 376.526 679.798 376.772 679.806 377.036H678.318C678.318 376.46 678.446 375.958 678.702 375.53C678.962 375.102 679.318 374.77 679.77 374.534C680.226 374.298 680.752 374.18 681.348 374.18C681.9 374.18 682.396 374.304 682.836 374.552C683.276 374.796 683.622 375.136 683.874 375.572C684.126 376.004 684.252 376.502 684.252 377.066C684.252 377.478 684.196 377.824 684.084 378.104C683.972 378.384 683.804 378.642 683.58 378.878C683.36 379.114 683.086 379.376 682.758 379.664L680.136 381.986L680.004 381.626H684.252V382.988H678.306Z" fill="#101828"/>
<path d="M771.093 382.988V381.728L774.789 378.434C775.077 378.178 775.277 377.936 775.389 377.708C775.501 377.48 775.557 377.26 775.557 377.048C775.557 376.76 775.495 376.504 775.371 376.28C775.247 376.052 775.075 375.872 774.855 375.74C774.639 375.608 774.389 375.542 774.105 375.542C773.805 375.542 773.539 375.612 773.307 375.752C773.079 375.888 772.901 376.07 772.773 376.298C772.645 376.526 772.585 376.772 772.593 377.036H771.105C771.105 376.46 771.233 375.958 771.489 375.53C771.749 375.102 772.105 374.77 772.557 374.534C773.013 374.298 773.539 374.18 774.135 374.18C774.687 374.18 775.183 374.304 775.623 374.552C776.063 374.796 776.409 375.136 776.661 375.572C776.913 376.004 777.039 376.502 777.039 377.066C777.039 377.478 776.983 377.824 776.871 378.104C776.759 378.384 776.591 378.642 776.367 378.878C776.147 379.114 775.873 379.376 775.545 379.664L772.923 381.986L772.791 381.626H777.039V382.988H771.093ZM780.69 374.36H782.142L779.838 383H778.386L780.69 374.36ZM783.481 382.988V381.728L787.177 378.434C787.465 378.178 787.665 377.936 787.777 377.708C787.889 377.48 787.945 377.26 787.945 377.048C787.945 376.76 787.883 376.504 787.759 376.28C787.635 376.052 787.463 375.872 787.243 375.74C787.027 375.608 786.777 375.542 786.493 375.542C786.193 375.542 785.927 375.612 785.695 375.752C785.467 375.888 785.289 376.07 785.161 376.298C785.033 376.526 784.973 376.772 784.981 377.036H783.493C783.493 376.46 783.621 375.958 783.877 375.53C784.137 375.102 784.493 374.77 784.945 374.534C785.401 374.298 785.927 374.18 786.523 374.18C787.075 374.18 787.571 374.304 788.011 374.552C788.451 374.796 788.797 375.136 789.049 375.572C789.301 376.004 789.427 376.502 789.427 377.066C789.427 377.478 789.371 377.824 789.259 378.104C789.147 378.384 788.979 378.642 788.755 378.878C788.535 379.114 788.261 379.376 787.933 379.664L785.311 381.986L785.179 381.626H789.427V382.988H783.481ZM793.882 383.18C793.318 383.18 792.81 383.048 792.358 382.784C791.91 382.516 791.554 382.146 791.29 381.674C791.026 381.202 790.894 380.66 790.894 380.048V377.42C790.894 376.764 791.024 376.194 791.284 375.71C791.548 375.226 791.916 374.852 792.388 374.588C792.864 374.324 793.416 374.192 794.044 374.192C794.48 374.192 794.894 374.266 795.286 374.414C795.678 374.558 796.026 374.79 796.33 375.11L795.286 376.124C795.134 375.944 794.948 375.802 794.728 375.698C794.512 375.594 794.284 375.542 794.044 375.542C793.708 375.542 793.414 375.622 793.162 375.782C792.91 375.938 792.714 376.144 792.574 376.4C792.438 376.656 792.37 376.93 792.37 377.222V378.656L792.106 378.368C792.354 378.08 792.652 377.856 793 377.696C793.348 377.532 793.712 377.45 794.092 377.45C794.636 377.45 795.116 377.574 795.532 377.822C795.948 378.066 796.276 378.402 796.516 378.83C796.756 379.254 796.876 379.738 796.876 380.282C796.876 380.822 796.738 381.312 796.462 381.752C796.19 382.188 795.828 382.536 795.376 382.796C794.924 383.052 794.426 383.18 793.882 383.18ZM793.882 381.794C794.162 381.794 794.418 381.728 794.65 381.596C794.882 381.46 795.066 381.278 795.202 381.05C795.342 380.818 795.412 380.562 795.412 380.282C795.412 380.002 795.344 379.746 795.208 379.514C795.072 379.282 794.888 379.098 794.656 378.962C794.428 378.822 794.174 378.752 793.894 378.752C793.614 378.752 793.358 378.822 793.126 378.962C792.894 379.098 792.71 379.282 792.574 379.514C792.438 379.746 792.37 380.002 792.37 380.282C792.37 380.554 792.436 380.806 792.568 381.038C792.704 381.266 792.886 381.45 793.114 381.59C793.346 381.726 793.602 381.794 793.882 381.794Z" fill="#101828"/>
<path d="M52.7091 306V298.938L51.0891 299.928V298.332L52.7091 297.36H54.1851V306H52.7091Z" fill="#101828"/>
<path d="M52.9988 370.18C52.3868 370.18 51.8468 370.05 51.3788 369.79C50.9108 369.526 50.5448 369.16 50.2808 368.692C50.0208 368.224 49.8908 367.684 49.8908 367.072V364.288C49.8908 363.676 50.0208 363.136 50.2808 362.668C50.5448 362.2 50.9108 361.836 51.3788 361.576C51.8468 361.312 52.3868 361.18 52.9988 361.18C53.6108 361.18 54.1488 361.312 54.6128 361.576C55.0808 361.836 55.4468 362.2 55.7108 362.668C55.9748 363.136 56.1068 363.676 56.1068 364.288V367.072C56.1068 367.684 55.9748 368.224 55.7108 368.692C55.4468 369.16 55.0808 369.526 54.6128 369.79C54.1488 370.05 53.6108 370.18 52.9988 370.18ZM52.9988 368.806C53.3028 368.806 53.5788 368.734 53.8268 368.59C54.0748 368.442 54.2708 368.246 54.4148 368.002C54.5588 367.754 54.6308 367.478 54.6308 367.174V364.18C54.6308 363.872 54.5588 363.596 54.4148 363.352C54.2708 363.104 54.0748 362.908 53.8268 362.764C53.5788 362.616 53.3028 362.542 52.9988 362.542C52.6948 362.542 52.4188 362.616 52.1708 362.764C51.9228 362.908 51.7268 363.104 51.5828 363.352C51.4388 363.596 51.3668 363.872 51.3668 364.18V367.174C51.3668 367.478 51.4388 367.754 51.5828 368.002C51.7268 368.246 51.9228 368.442 52.1708 368.59C52.4188 368.734 52.6948 368.806 52.9988 368.806Z" fill="#101828"/>
<line y1="56.5" x2="865" y2="56.5" stroke="#EDEDED"/>
<line x1="77" y1="109.5" x2="801" y2="109.5" stroke="#EDEDED"/>
<line x1="77" y1="173.5" x2="801" y2="173.5" stroke="#EDEDED"/>
<line x1="77" y1="237.5" x2="801" y2="237.5" stroke="#EDEDED"/>
<line x1="77" y1="301.5" x2="801" y2="301.5" stroke="#EDEDED"/>
<line x1="77" y1="365.5" x2="801" y2="365.5" stroke="#EDEDED"/>
<circle cx="3" cy="3" r="3.5" transform="matrix(1 0 0 -1 224 368)" fill="#1261AC" stroke="white"/>
<path d="M227 113V362" stroke="#EDEDED"/>
<rect x="234.5" y="220.5" width="100" height="56" rx="3.5" fill="white"/>
<rect x="234.5" y="220.5" width="100" height="56" rx="3.5" stroke="#EDEDED"/>
<path d="M242.7 236V228.8H243.785L246.275 233.9L248.765 228.8H249.85V236H248.725V231.385L246.515 236H246.035L243.83 231.385V236H242.7ZM253.66 236.15C253.12 236.15 252.648 236.028 252.245 235.785C251.841 235.542 251.528 235.207 251.305 234.78C251.085 234.35 250.975 233.857 250.975 233.3C250.975 232.733 251.088 232.237 251.315 231.81C251.541 231.383 251.856 231.05 252.26 230.81C252.663 230.57 253.13 230.45 253.66 230.45C254.203 230.45 254.676 230.572 255.08 230.815C255.483 231.058 255.796 231.395 256.02 231.825C256.243 232.252 256.355 232.743 256.355 233.3C256.355 233.86 256.241 234.355 256.015 234.785C255.791 235.212 255.478 235.547 255.075 235.79C254.671 236.03 254.2 236.15 253.66 236.15ZM253.66 235.02C254.14 235.02 254.496 234.86 254.73 234.54C254.963 234.22 255.08 233.807 255.08 233.3C255.08 232.777 254.961 232.36 254.725 232.05C254.488 231.737 254.133 231.58 253.66 231.58C253.336 231.58 253.07 231.653 252.86 231.8C252.653 231.943 252.5 232.145 252.4 232.405C252.3 232.662 252.25 232.96 252.25 233.3C252.25 233.823 252.368 234.242 252.605 234.555C252.845 234.865 253.196 235.02 253.66 235.02ZM261.211 236V233.4C261.211 233.23 261.2 233.042 261.176 232.835C261.153 232.628 261.098 232.43 261.011 232.24C260.928 232.047 260.801 231.888 260.631 231.765C260.465 231.642 260.238 231.58 259.951 231.58C259.798 231.58 259.646 231.605 259.496 231.655C259.346 231.705 259.21 231.792 259.086 231.915C258.966 232.035 258.87 232.202 258.796 232.415C258.723 232.625 258.686 232.895 258.686 233.225L257.971 232.92C257.971 232.46 258.06 232.043 258.236 231.67C258.416 231.297 258.68 231 259.026 230.78C259.373 230.557 259.8 230.445 260.306 230.445C260.706 230.445 261.036 230.512 261.296 230.645C261.556 230.778 261.763 230.948 261.916 231.155C262.07 231.362 262.183 231.582 262.256 231.815C262.33 232.048 262.376 232.27 262.396 232.48C262.42 232.687 262.431 232.855 262.431 232.985V236H261.211ZM257.466 236V230.6H258.541V232.275H258.686V236H257.466ZM263.656 237.275L263.726 236.755C263.879 236.768 264.001 236.742 264.091 236.675C264.181 236.612 264.241 236.52 264.271 236.4C264.304 236.283 264.313 236.15 264.296 236H263.656V234.715H264.891V236.05C264.891 236.487 264.788 236.817 264.581 237.04C264.374 237.263 264.066 237.342 263.656 237.275ZM268.835 236V228.8H273.17V230.005H270.04V231.8H272.57V233H270.04V236H268.835ZM276.398 236.15C275.851 236.15 275.371 236.032 274.958 235.795C274.545 235.558 274.221 235.23 273.988 234.81C273.758 234.39 273.643 233.907 273.643 233.36C273.643 232.77 273.756 232.258 273.983 231.825C274.21 231.388 274.525 231.05 274.928 230.81C275.331 230.57 275.798 230.45 276.328 230.45C276.888 230.45 277.363 230.582 277.753 230.845C278.146 231.105 278.438 231.473 278.628 231.95C278.818 232.427 278.89 232.988 278.843 233.635H277.648V233.195C277.645 232.608 277.541 232.18 277.338 231.91C277.135 231.64 276.815 231.505 276.378 231.505C275.885 231.505 275.518 231.658 275.278 231.965C275.038 232.268 274.918 232.713 274.918 233.3C274.918 233.847 275.038 234.27 275.278 234.57C275.518 234.87 275.868 235.02 276.328 235.02C276.625 235.02 276.88 234.955 277.093 234.825C277.31 234.692 277.476 234.5 277.593 234.25L278.783 234.61C278.576 235.097 278.256 235.475 277.823 235.745C277.393 236.015 276.918 236.15 276.398 236.15ZM274.538 233.635V232.725H278.253V233.635H274.538ZM282.574 236.15C282.047 236.15 281.605 236.025 281.249 235.775C280.892 235.525 280.624 235.185 280.444 234.755C280.264 234.322 280.174 233.837 280.174 233.3C280.174 232.757 280.264 232.27 280.444 231.84C280.624 231.41 280.887 231.072 281.234 230.825C281.584 230.575 282.015 230.45 282.529 230.45C283.039 230.45 283.48 230.575 283.854 230.825C284.23 231.072 284.522 231.41 284.729 231.84C284.935 232.267 285.039 232.753 285.039 233.3C285.039 233.84 284.937 234.325 284.734 234.755C284.53 235.185 284.244 235.525 283.874 235.775C283.504 236.025 283.07 236.15 282.574 236.15ZM279.969 236V228.8H281.184V232.21H281.034V236H279.969ZM282.389 235.07C282.702 235.07 282.96 234.992 283.164 234.835C283.367 234.678 283.517 234.467 283.614 234.2C283.714 233.93 283.764 233.63 283.764 233.3C283.764 232.973 283.714 232.677 283.614 232.41C283.514 232.14 283.359 231.927 283.149 231.77C282.939 231.61 282.672 231.53 282.349 231.53C282.042 231.53 281.792 231.605 281.599 231.755C281.405 231.902 281.262 232.108 281.169 232.375C281.079 232.638 281.034 232.947 281.034 233.3C281.034 233.65 281.079 233.958 281.169 234.225C281.262 234.492 281.407 234.7 281.604 234.85C281.804 234.997 282.065 235.07 282.389 235.07ZM290.673 236.15C290.203 236.15 289.779 236.04 289.403 235.82C289.029 235.597 288.733 235.288 288.513 234.895C288.293 234.502 288.183 234.05 288.183 233.54V231.35C288.183 230.803 288.291 230.328 288.508 229.925C288.728 229.522 289.034 229.21 289.428 228.99C289.824 228.77 290.284 228.66 290.808 228.66C291.171 228.66 291.516 228.722 291.843 228.845C292.169 228.965 292.459 229.158 292.713 229.425L291.843 230.27C291.716 230.12 291.561 230.002 291.378 229.915C291.198 229.828 291.008 229.785 290.808 229.785C290.528 229.785 290.283 229.852 290.073 229.985C289.863 230.115 289.699 230.287 289.583 230.5C289.469 230.713 289.413 230.942 289.413 231.185V232.38L289.193 232.14C289.399 231.9 289.648 231.713 289.938 231.58C290.228 231.443 290.531 231.375 290.848 231.375C291.301 231.375 291.701 231.478 292.048 231.685C292.394 231.888 292.668 232.168 292.868 232.525C293.068 232.878 293.168 233.282 293.168 233.735C293.168 234.185 293.053 234.593 292.823 234.96C292.596 235.323 292.294 235.613 291.918 235.83C291.541 236.043 291.126 236.15 290.673 236.15ZM290.673 234.995C290.906 234.995 291.119 234.94 291.313 234.83C291.506 234.717 291.659 234.565 291.773 234.375C291.889 234.182 291.948 233.968 291.948 233.735C291.948 233.502 291.891 233.288 291.778 233.095C291.664 232.902 291.511 232.748 291.318 232.635C291.128 232.518 290.916 232.46 290.683 232.46C290.449 232.46 290.236 232.518 290.043 232.635C289.849 232.748 289.696 232.902 289.583 233.095C289.469 233.288 289.413 233.502 289.413 233.735C289.413 233.962 289.468 234.172 289.578 234.365C289.691 234.555 289.843 234.708 290.033 234.825C290.226 234.938 290.439 234.995 290.673 234.995Z" fill="#101828"/>
<path d="M248.58 268.3C247.56 268.3 246.66 268.083 245.88 267.65C245.1 267.21 244.49 266.6 244.05 265.82C243.617 265.04 243.4 264.14 243.4 263.12V258.48C243.4 257.46 243.617 256.56 244.05 255.78C244.49 255 245.1 254.393 245.88 253.96C246.66 253.52 247.56 253.3 248.58 253.3C249.6 253.3 250.497 253.52 251.27 253.96C252.05 254.393 252.66 255 253.1 255.78C253.54 256.56 253.76 257.46 253.76 258.48V263.12C253.76 264.14 253.54 265.04 253.1 265.82C252.66 266.6 252.05 267.21 251.27 267.65C250.497 268.083 249.6 268.3 248.58 268.3ZM248.58 266.01C249.087 266.01 249.547 265.89 249.96 265.65C250.373 265.403 250.7 265.077 250.94 264.67C251.18 264.257 251.3 263.797 251.3 263.29V258.3C251.3 257.787 251.18 257.327 250.94 256.92C250.7 256.507 250.373 256.18 249.96 255.94C249.547 255.693 249.087 255.57 248.58 255.57C248.073 255.57 247.613 255.693 247.2 255.94C246.787 256.18 246.46 256.507 246.22 256.92C245.98 257.327 245.86 257.787 245.86 258.3V263.29C245.86 263.797 245.98 264.257 246.22 264.67C246.46 265.077 246.787 265.403 247.2 265.65C247.613 265.89 248.073 266.01 248.58 266.01Z" fill="#101828"/>
</g>
<rect x="0.5" y="0.5" width="832" height="449" rx="7.5" stroke="#EDEDED"/>
<defs>
<clipPath id="clip0_730_25478">
<rect width="833" height="450" rx="8" fill="white"/>
</clipPath>
</defs>
</svg>
