<svg width="165" height="157" viewBox="0 0 165 157" fill="none" xmlns="http://www.w3.org/2000/svg">
<path d="M163.511 114.119C159.045 91.597 132.879 73.5968 127.775 50.1274C118.5 20.268 87.9266 15.5471 68.0597 28.5151C36.5805 49.0629 70.1622 54.162 8.44184 102.777C-6.79832 114.781 -1.94211 167.77 46.0025 155.609C71.8042 149.065 79.6479 148.146 91.2536 147.069C120.506 144.353 171.008 151.925 163.511 114.119Z" fill="#74B4F1"/>
<path d="M137.918 122.477L86.7898 152L29.2148 118.679L80.3433 89.1636L137.918 122.477Z" fill="#1261AC"/>
<path opacity="0.5" d="M137.918 122.477L86.7898 152L29.2148 118.679L80.3433 89.1636L137.918 122.477Z" fill="black"/>
<path d="M80.3433 49.1467V89.1636L29.2148 118.679V78.669L80.3433 49.1467Z" fill="#1261AC"/>
<path opacity="0.23" d="M80.3433 49.1467V89.1636L29.2148 118.679V78.669L80.3433 49.1467Z" fill="black"/>
<path d="M86.7898 111.983V152L29.2148 118.679V78.6689L86.7898 111.983Z" fill="#1261AC"/>
<path opacity="0.38" d="M86.7898 111.983V152L29.2148 118.679V78.6689L86.7898 111.983Z" fill="black"/>
<path d="M137.923 82.4606V122.478L80.3477 89.1636V49.1467L137.923 82.4606Z" fill="#1261AC"/>
<path opacity="0.4" d="M137.923 82.4606V122.478L80.3477 89.1636V49.1467L137.923 82.4606Z" fill="black"/>
<path d="M137.921 122.478V82.4607L86.793 111.983V152L137.921 122.478Z" fill="#1261AC"/>
<path opacity="0.23" d="M137.921 122.478V82.4607L86.793 111.983V152L137.921 122.478Z" fill="black"/>
<path d="M80.3477 49.1467L80.417 26.9929L137.853 60.3484L137.923 82.4607L80.3477 49.1467Z" fill="#1261AC"/>
<path opacity="0.2" d="M80.3477 49.1467L80.417 26.9929L137.853 60.3484L137.923 82.4607L80.3477 49.1467Z" fill="black"/>
<path d="M86.793 111.983L91.5897 92.6018L142.254 63.3499L137.921 82.4606L86.793 111.983Z" fill="#1261AC"/>
<path opacity="0.3" d="M86.793 111.983L91.5897 92.6018L142.254 63.3499L137.921 82.4606L86.793 111.983Z" fill="black"/>
<path d="M29.2171 78.6689L23.1172 58.5668L74.2457 29.0515L80.3456 49.1466L29.2171 78.6689Z" fill="#1261AC"/>
<path opacity="0.1" d="M29.2171 78.6689L23.1172 58.5668L74.2457 29.0515L80.3456 49.1466L29.2171 78.6689Z" fill="black"/>
<path d="M29.2171 78.6691L17.1836 62.0537L74.7655 95.3676L86.7921 111.983L29.2171 78.6691Z" fill="#1261AC"/>
<path opacity="0.45" d="M29.2171 78.6691L17.1836 62.0537L74.7655 95.3676L86.7921 111.983L29.2171 78.6691Z" fill="black"/>
<g opacity="0.7">
<path d="M101.846 140.098C101.763 140.098 101.683 140.065 101.623 140.007C101.564 139.949 101.529 139.869 101.527 139.786V132.743C101.529 132.659 101.563 132.579 101.623 132.52C101.682 132.46 101.762 132.426 101.846 132.424C101.93 132.426 102.009 132.461 102.067 132.52C102.126 132.58 102.158 132.66 102.158 132.743V139.786C102.158 139.869 102.125 139.948 102.067 140.007C102.008 140.065 101.929 140.098 101.846 140.098Z" fill="white"/>
<path d="M100.923 135.183C100.882 135.19 100.84 135.19 100.799 135.183C100.723 135.148 100.664 135.086 100.633 135.008C100.602 134.931 100.602 134.845 100.632 134.767L101.755 132.182L103.003 133.624C103.048 133.688 103.067 133.767 103.057 133.845C103.047 133.923 103.009 133.994 102.95 134.046C102.891 134.097 102.815 134.125 102.736 134.124C102.658 134.123 102.582 134.093 102.525 134.039L101.935 133.346L101.242 135.01C101.212 135.067 101.166 135.114 101.109 135.145C101.052 135.176 100.988 135.189 100.923 135.183Z" fill="white"/>
<path d="M104.749 138.441C104.666 138.439 104.587 138.405 104.528 138.345C104.47 138.286 104.437 138.206 104.438 138.122V131.087C104.438 131.004 104.47 130.925 104.529 130.866C104.587 130.808 104.667 130.775 104.749 130.775C104.832 130.775 104.912 130.808 104.97 130.866C105.028 130.925 105.061 131.004 105.061 131.087V138.115C105.062 138.157 105.055 138.199 105.04 138.238C105.025 138.277 105.002 138.313 104.973 138.343C104.944 138.373 104.909 138.397 104.871 138.414C104.833 138.431 104.791 138.44 104.749 138.441Z" fill="white"/>
<path d="M103.828 133.527C103.787 133.533 103.745 133.533 103.703 133.527C103.665 133.51 103.631 133.486 103.602 133.456C103.574 133.426 103.551 133.391 103.536 133.352C103.521 133.313 103.514 133.272 103.516 133.231C103.517 133.189 103.527 133.148 103.544 133.111L104.66 130.49L105.908 131.925C105.965 131.985 105.997 132.064 105.997 132.147C105.997 132.23 105.965 132.309 105.908 132.369C105.879 132.398 105.844 132.422 105.806 132.438C105.768 132.453 105.727 132.462 105.686 132.462C105.645 132.462 105.604 132.453 105.566 132.438C105.528 132.422 105.493 132.398 105.464 132.369L104.875 131.676L104.182 133.339C104.153 133.406 104.102 133.461 104.038 133.495C103.974 133.529 103.9 133.54 103.828 133.527Z" fill="white"/>
</g>
<g opacity="0.7">
<path d="M93.4649 144.874C93.3464 144.876 93.2295 144.847 93.1253 144.791C92.9999 144.71 92.8984 144.598 92.8314 144.465C92.7643 144.332 92.7341 144.184 92.744 144.035V143.169C92.7458 143.085 92.7802 143.006 92.8398 142.948C92.8994 142.889 92.9795 142.857 93.0629 142.857C93.1456 142.857 93.2249 142.89 93.2834 142.948C93.3419 143.007 93.3748 143.086 93.3748 143.169V144.035C93.3748 144.16 93.3748 144.229 93.4372 144.243C93.4996 144.257 93.5342 144.243 93.6382 144.188C93.8333 144.008 93.987 143.787 94.0887 143.542C94.1904 143.297 94.2378 143.032 94.2274 142.767V139.162C94.2274 139.079 94.2603 139 94.3188 138.942C94.3773 138.883 94.4566 138.85 94.5393 138.85C94.6221 138.85 94.7014 138.883 94.7599 138.942C94.8184 139 94.8513 139.079 94.8513 139.162V142.767C94.8668 143.141 94.7939 143.514 94.6385 143.854C94.4832 144.195 94.2497 144.495 93.9571 144.728C93.8089 144.82 93.639 144.87 93.4649 144.874Z" fill="white"/>
<path d="M90.1602 141.97V141.429C90.2425 140.041 90.6484 138.691 91.3452 137.487C92.0421 136.284 93.0106 135.26 94.1736 134.497C95.3104 133.846 96.3918 133.748 97.2236 134.234C97.6672 134.538 98.021 134.956 98.2478 135.444C98.4746 135.931 98.5662 136.471 98.5129 137.006V137.187L90.1602 141.97ZM96.0591 134.525C95.504 134.55 94.9648 134.717 94.4925 135.01C93.4959 135.666 92.6521 136.528 92.0182 137.539C91.3843 138.55 90.9752 139.685 90.8187 140.867L97.8682 136.792C97.8983 136.39 97.8242 135.988 97.6529 135.623C97.4817 135.259 97.2192 134.945 96.8909 134.712C96.6348 134.578 96.3479 134.513 96.0591 134.525Z" fill="white"/>
</g>
<path opacity="0.7" d="M17.1836 62.0537L74.7655 95.3676L86.7921 111.983L74.1278 95.9568L17.1836 62.0537Z" fill="white"/>
<path opacity="0.7" d="M137.921 82.4607L86.793 111.983V152L87.7495 112.787L137.921 82.4607Z" fill="white"/>
<path d="M62.8886 66.4552C68.1637 65.6928 72.9812 62.2962 76.0589 58.0263C77.4942 56.0312 78.5514 53.7898 79.1782 51.4134C79.8438 49.1911 79.9533 46.8393 79.497 44.5648C78.5474 40.7593 75.0261 38.5065 71.3037 38.0351C69.4149 37.7866 67.4942 37.974 65.689 38.5827C63.8172 39.2251 62.1933 40.437 61.0448 42.0486C60.3246 42.9072 59.8716 43.9578 59.7416 45.0708C59.7305 45.5068 59.8842 45.9309 60.172 46.2585C60.4598 46.5861 60.8606 46.7932 61.2943 46.8384C62.4105 46.9325 63.5259 46.6493 64.4621 46.0344C65.6037 45.3942 66.6092 44.5371 67.422 43.5112C69.1655 41.3594 70.4702 38.8867 71.2621 36.2329C71.8179 33.9557 71.8179 31.5783 71.2621 29.3011C70.84 26.9191 69.7512 24.7054 68.1221 22.917C66.2544 21.2186 63.8844 20.1747 61.3706 19.9433C58.8687 19.5996 56.3213 19.8368 53.9259 20.6365C52.8737 20.9555 51.899 21.4889 51.0631 22.203C50.4669 22.7576 49.7876 23.6726 50.0302 24.5737C50.2728 25.4748 51.5899 25.8769 52.4841 25.759C53.8075 25.511 55.0197 24.854 55.9499 23.8805C56.9866 22.86 57.8672 21.6921 58.5632 20.4147C59.0803 19.4966 59.3502 18.46 59.3465 17.4063C59.2564 13.0116 54.3972 10.1696 50.5917 9.36547C49.5644 9.15086 48.5122 9.08088 47.4655 9.15753C47.112 9.15753 47.3269 9.73979 47.6111 9.719C49.6589 9.62594 51.694 10.0856 53.503 11.0499C55.2878 11.8702 56.7868 13.205 57.8076 14.8831C58.2626 15.7105 58.4872 16.6447 58.4579 17.5885C58.4286 18.5322 58.1466 19.4508 57.6413 20.2483C56.9625 21.4305 56.1175 22.509 55.132 23.4508C54.3071 24.1994 53.0525 25.0659 51.8949 24.9827C51.7038 24.9822 51.5166 24.9281 51.3548 24.8263C51.193 24.7246 51.0631 24.5794 50.9799 24.4073C50.945 24.1797 50.9637 23.9471 51.0348 23.7281C51.1058 23.509 51.227 23.3096 51.3889 23.1458C52.001 22.4866 52.758 21.9787 53.6001 21.6624C55.6796 20.7979 57.9314 20.4278 60.1783 20.581C62.4938 20.6229 64.7457 21.3462 66.6525 22.6605C68.3137 24.0398 69.4934 25.9113 70.0214 28.0049C70.6901 30.1317 70.8981 32.3766 70.6313 34.5901C70.2197 36.8173 69.364 38.939 68.1151 40.8286C66.8328 42.9497 65.2246 44.9877 62.8124 45.8195C62.2162 46.0344 60.9685 46.3463 60.7328 45.4798C60.4972 44.6133 61.1765 43.5459 61.6132 42.8735C62.5788 41.3537 63.9867 40.1659 65.6474 39.47C67.25 38.8277 68.9799 38.5666 70.7007 38.7075C73.9655 38.9501 77.2789 40.6553 78.4157 43.8994C78.9859 45.8381 79.048 47.891 78.5959 49.8607C78.1881 52.0197 77.412 54.0924 76.3015 55.9883C73.9128 60.0166 70.2952 63.1726 65.9802 64.9927C64.9543 65.4363 63.9006 65.8106 62.8262 66.1572C62.7153 66.1988 62.7638 66.476 62.8886 66.4552Z" fill="#E0E0E0"/>
<path d="M40.8528 6.27393C38.0801 6.07291 34.2607 8.25641 35.6193 9.85071C36.978 11.445 40.5825 8.86639 40.5825 8.86639C40.5825 8.86639 40.2428 12.0897 41.4212 12.457C42.5996 12.8244 44.1939 9.74673 43.0155 7.77812C43.5838 8.00216 44.1995 8.07896 44.8054 8.00141C45.4113 7.92385 45.9878 7.69444 46.4814 7.33449C48.1588 6.10064 46.3843 4.9361 44.0206 5.14405C44.0206 5.14405 45.7119 -0.401335 42.2946 0.659221C40.5825 1.1791 39.9794 3.18238 40.8528 6.27393Z" fill="#1261AC"/>
<path opacity="0.65" d="M40.8528 6.27393C38.0801 6.07291 34.2607 8.25641 35.6193 9.85071C36.978 11.445 40.5825 8.86639 40.5825 8.86639C40.5825 8.86639 40.2428 12.0897 41.4212 12.457C42.5996 12.8244 44.1939 9.74673 43.0155 7.77812C43.5838 8.00216 44.1995 8.07896 44.8054 8.00141C45.4113 7.92385 45.9878 7.69444 46.4814 7.33449C48.1588 6.10064 46.3843 4.9361 44.0206 5.14405C44.0206 5.14405 45.7119 -0.401335 42.2946 0.659221C40.5825 1.1791 39.9794 3.18238 40.8528 6.27393Z" fill="white"/>
<path d="M43.4287 7.45227C43.2753 7.30205 43.1133 7.16087 42.9435 7.02943C42.7009 6.84228 42.4444 6.66206 42.2018 6.48183C41.9656 6.31008 41.7178 6.15489 41.4601 6.0174C41.3118 5.9351 41.1591 5.86105 41.0026 5.79559C40.7866 5.69415 40.5464 5.6557 40.3095 5.68468C40.2474 5.68643 40.1869 5.70483 40.1344 5.73795C40.0819 5.77108 40.0392 5.81772 40.0108 5.87298C39.9825 5.92824 39.9695 5.9901 39.9733 6.05209C39.977 6.11408 39.9974 6.17391 40.0322 6.22535C40.2228 6.43178 40.4606 6.58879 40.7254 6.68285L41.0997 6.88386C41.3562 7.03636 41.5849 7.20966 41.7929 7.38295C42.0008 7.55624 42.2781 7.72261 42.486 7.8959C42.8436 8.18589 43.2433 8.41964 43.6714 8.58907C43.6905 8.59939 43.712 8.60479 43.7337 8.60479C43.7555 8.60479 43.7769 8.59939 43.7961 8.58907C44.1496 8.31181 43.6298 7.65329 43.4287 7.45227Z" fill="#455A64"/>
</svg>
