<svg width="20" height="20" viewBox="0 0 20 20" fill="none" xmlns="http://www.w3.org/2000/svg">
<path d="M13.3327 10.75V14.25C13.3327 17.1667 12.166 18.3333 9.24935 18.3333H5.74935C2.83268 18.3333 1.66602 17.1667 1.66602 14.25V10.75C1.66602 7.83333 2.83268 6.66667 5.74935 6.66667H9.24935C12.166 6.66667 13.3327 7.83333 13.3327 10.75Z" stroke="#8A8A8A" strokeWidth="1.5" strokeLinecap="round" strokeLinejoin="round"/>
<path d="M18.3327 5.75V9.25C18.3327 12.1667 17.166 13.3333 14.2494 13.3333H13.3327V10.75C13.3327 7.83333 12.166 6.66667 9.24935 6.66667H6.66602V5.75C6.66602 2.83333 7.83268 1.66667 10.7493 1.66667H14.2494C17.166 1.66667 18.3327 2.83333 18.3327 5.75Z" stroke="#8A8A8A" strokeWidth="1.5" strokeLinecap="round" strokeLinejoin="round"/>
</svg>
