<svg width="20" height="20" viewBox="0 0 20 20" fill="none" xmlns="http://www.w3.org/2000/svg">
<path d="M13.3346 10.75V14.25C13.3346 17.1666 12.168 18.3333 9.2513 18.3333H5.7513C2.83464 18.3333 1.66797 17.1666 1.66797 14.25V10.75C1.66797 7.83329 2.83464 6.66663 5.7513 6.66663H9.2513C12.168 6.66663 13.3346 7.83329 13.3346 10.75Z" stroke="#1261AC" stroke-width="1.5" stroke-linecap="round" stroke-linejoin="round"/>
<path d="M18.3346 5.74996V9.24996C18.3346 12.1666 17.168 13.3333 14.2513 13.3333H13.3346V10.75C13.3346 7.83329 12.168 6.66663 9.2513 6.66663H6.66797V5.74996C6.66797 2.83329 7.83464 1.66663 10.7513 1.66663H14.2513C17.168 1.66663 18.3346 2.83329 18.3346 5.74996Z" stroke="#1261AC" stroke-width="1.5" stroke-linecap="round" stroke-linejoin="round"/>
</svg>
