<svg width="272" height="48" viewBox="0 0 272 48" fill="none" xmlns="http://www.w3.org/2000/svg">
<g clip-path="url(#clip0_622_15074)">
<path d="M27.7706 27.56L31.2306 31.02C33.6606 33.45 34.4906 33.41 36.8906 31.02L42.4606 25.45C44.4006 23.51 44.8906 22.22 42.4606 19.79L39.0006 16.33C36.4106 13.74 35.2806 14.39 33.3406 16.33L27.7706 21.9C25.3806 24.3 25.1806 24.97 27.7706 27.56Z" stroke="#8A8A8A" stroke-width="1.5" stroke-linecap="round" stroke-linejoin="round"/>
<path d="M43.1995 28.79L42.5395 29.88C41.6095 31.43 42.3295 32.7 44.1395 32.7C45.9495 32.7 46.6695 31.43 45.7395 29.88L45.0795 28.79C44.5595 27.93 43.7095 27.93 43.1995 28.79Z" stroke="#8A8A8A" stroke-width="1.5" stroke-linecap="round" stroke-linejoin="round"/>
<path d="M26 24.24C31.56 22.73 37.42 22.68 43 24.11L43.5 24.24" stroke="#8A8A8A" stroke-width="1.5" stroke-linecap="round" stroke-linejoin="round"/>
</g>
<path d="M77.243 29.71C76.235 29.71 75.3717 29.4907 74.653 29.052C73.9343 28.6087 73.3813 27.9927 72.994 27.204C72.6113 26.4153 72.42 25.5007 72.42 24.46C72.42 23.4193 72.6113 22.5047 72.994 21.716C73.3813 20.9273 73.9343 20.3137 74.653 19.875C75.3717 19.4317 76.235 19.21 77.243 19.21C78.405 19.21 79.3733 19.5017 80.148 20.085C80.9227 20.6637 81.4663 21.4453 81.779 22.43L80.078 22.899C79.882 22.241 79.5483 21.7277 79.077 21.359C78.6057 20.9857 77.9943 20.799 77.243 20.799C76.5663 20.799 76.0017 20.9507 75.549 21.254C75.101 21.5573 74.7627 21.9843 74.534 22.535C74.31 23.081 74.1957 23.7227 74.191 24.46C74.191 25.1973 74.303 25.8413 74.527 26.392C74.7557 26.938 75.0963 27.3627 75.549 27.666C76.0017 27.9693 76.5663 28.121 77.243 28.121C77.9943 28.121 78.6057 27.9343 79.077 27.561C79.5483 27.1877 79.882 26.6743 80.078 26.021L81.779 26.49C81.4663 27.4747 80.9227 28.2587 80.148 28.842C79.3733 29.4207 78.405 29.71 77.243 29.71ZM88.5449 29.5V25.86C88.5449 25.622 88.5286 25.3583 88.4959 25.069C88.4633 24.7797 88.3863 24.502 88.2649 24.236C88.1483 23.9653 87.9709 23.7437 87.7329 23.571C87.4996 23.3983 87.1823 23.312 86.7809 23.312C86.5663 23.312 86.3539 23.347 86.1439 23.417C85.9339 23.487 85.7426 23.6083 85.5699 23.781C85.4019 23.949 85.2666 24.1823 85.1639 24.481C85.0613 24.775 85.0099 25.153 85.0099 25.615L84.0089 25.188C84.0089 24.544 84.1326 23.9607 84.3799 23.438C84.6319 22.9153 85.0006 22.5 85.4859 22.192C85.9713 21.8793 86.5686 21.723 87.2779 21.723C87.8379 21.723 88.2999 21.8163 88.6639 22.003C89.0279 22.1897 89.3173 22.4277 89.5319 22.717C89.7466 23.0063 89.9053 23.3143 90.0079 23.641C90.1106 23.9677 90.1759 24.278 90.2039 24.572C90.2366 24.8613 90.2529 25.097 90.2529 25.279V29.5H88.5449ZM83.3019 29.5V19.42H84.8069V24.726H85.0099V29.5H83.3019ZM94.1936 29.71C93.6476 29.71 93.1856 29.6073 92.8076 29.402C92.4296 29.192 92.1426 28.9143 91.9466 28.569C91.7553 28.2237 91.6596 27.8433 91.6596 27.428C91.6596 27.064 91.7203 26.7373 91.8416 26.448C91.9629 26.154 92.1496 25.902 92.4016 25.692C92.6536 25.4773 92.9803 25.3023 93.3816 25.167C93.6849 25.069 94.0396 24.9803 94.4456 24.901C94.8563 24.8217 95.2996 24.7493 95.7756 24.684C96.2563 24.614 96.7579 24.5393 97.2806 24.46L96.6786 24.803C96.6833 24.2803 96.5666 23.8953 96.3286 23.648C96.0906 23.4007 95.6893 23.277 95.1246 23.277C94.7839 23.277 94.4549 23.3563 94.1376 23.515C93.8203 23.6737 93.5986 23.9467 93.4726 24.334L91.9326 23.851C92.1193 23.2117 92.4739 22.6983 92.9966 22.311C93.5239 21.9237 94.2333 21.73 95.1246 21.73C95.7966 21.73 96.3869 21.8397 96.8956 22.059C97.4089 22.2783 97.7893 22.6377 98.0366 23.137C98.1719 23.403 98.2536 23.676 98.2816 23.956C98.3096 24.2313 98.3236 24.5323 98.3236 24.859V29.5H96.8466V27.862L97.0916 28.128C96.7509 28.674 96.3519 29.0753 95.8946 29.332C95.4419 29.584 94.8749 29.71 94.1936 29.71ZM94.5296 28.366C94.9123 28.366 95.2389 28.2983 95.5096 28.163C95.7803 28.0277 95.9949 27.862 96.1536 27.666C96.3169 27.47 96.4266 27.2857 96.4826 27.113C96.5713 26.8983 96.6203 26.6533 96.6296 26.378C96.6436 26.098 96.6506 25.8717 96.6506 25.699L97.1686 25.853C96.6599 25.9323 96.2236 26.0023 95.8596 26.063C95.4956 26.1237 95.1829 26.182 94.9216 26.238C94.6603 26.2893 94.4293 26.3477 94.2286 26.413C94.0326 26.483 93.8669 26.5647 93.7316 26.658C93.5963 26.7513 93.4913 26.8587 93.4166 26.98C93.3466 27.1013 93.3116 27.2437 93.3116 27.407C93.3116 27.5937 93.3583 27.7593 93.4516 27.904C93.5449 28.044 93.6803 28.156 93.8576 28.24C94.0396 28.324 94.2636 28.366 94.5296 28.366ZM104.577 29.5C104.078 29.5933 103.588 29.633 103.107 29.619C102.631 29.6097 102.204 29.5233 101.826 29.36C101.448 29.192 101.161 28.9283 100.965 28.569C100.792 28.2423 100.701 27.9087 100.692 27.568C100.683 27.2273 100.678 26.8423 100.678 26.413V19.84H102.358V26.315C102.358 26.6183 102.36 26.8843 102.365 27.113C102.374 27.3417 102.423 27.5283 102.512 27.673C102.68 27.953 102.948 28.1093 103.317 28.142C103.686 28.1747 104.106 28.156 104.577 28.086V29.5ZM99.306 23.263V21.94H104.577V23.263H99.306ZM109.145 29.5V19.42H110.832V29.5H109.145ZM118.158 29.5V25.86C118.158 25.622 118.142 25.3583 118.109 25.069C118.077 24.7797 118 24.502 117.878 24.236C117.762 23.9653 117.584 23.7437 117.346 23.571C117.113 23.3983 116.796 23.312 116.394 23.312C116.18 23.312 115.967 23.347 115.757 23.417C115.547 23.487 115.356 23.6083 115.183 23.781C115.015 23.949 114.88 24.1823 114.777 24.481C114.675 24.775 114.623 25.153 114.623 25.615L113.622 25.188C113.622 24.544 113.746 23.9607 113.993 23.438C114.245 22.9153 114.614 22.5 115.099 22.192C115.585 21.8793 116.182 21.723 116.891 21.723C117.451 21.723 117.913 21.8163 118.277 22.003C118.641 22.1897 118.931 22.4277 119.145 22.717C119.36 23.0063 119.519 23.3143 119.621 23.641C119.724 23.9677 119.789 24.278 119.817 24.572C119.85 24.8613 119.866 25.097 119.866 25.279V29.5H118.158ZM112.915 29.5V21.94H114.42V24.285H114.623V29.5H112.915ZM126.124 29.5C125.625 29.5933 125.135 29.633 124.654 29.619C124.178 29.6097 123.751 29.5233 123.373 29.36C122.995 29.192 122.708 28.9283 122.512 28.569C122.339 28.2423 122.248 27.9087 122.239 27.568C122.23 27.2273 122.225 26.8423 122.225 26.413V19.84H123.905V26.315C123.905 26.6183 123.907 26.8843 123.912 27.113C123.921 27.3417 123.97 27.5283 124.059 27.673C124.227 27.953 124.495 28.1093 124.864 28.142C125.233 28.1747 125.653 28.156 126.124 28.086V29.5ZM120.853 23.263V21.94H126.124V23.263H120.853ZM130.804 29.71C130.038 29.71 129.366 29.5443 128.788 29.213C128.209 28.8817 127.756 28.422 127.43 27.834C127.108 27.246 126.947 26.5693 126.947 25.804C126.947 24.978 127.105 24.2617 127.423 23.655C127.74 23.0437 128.181 22.57 128.746 22.234C129.31 21.898 129.964 21.73 130.706 21.73C131.49 21.73 132.155 21.9143 132.701 22.283C133.251 22.647 133.66 23.1627 133.926 23.83C134.192 24.4973 134.292 25.2837 134.227 26.189H132.554V25.573C132.549 24.7517 132.404 24.152 132.12 23.774C131.835 23.396 131.387 23.207 130.776 23.207C130.085 23.207 129.572 23.4217 129.236 23.851C128.9 24.2757 128.732 24.8987 128.732 25.72C128.732 26.4853 128.9 27.078 129.236 27.498C129.572 27.918 130.062 28.128 130.706 28.128C131.121 28.128 131.478 28.037 131.777 27.855C132.08 27.6683 132.313 27.4 132.477 27.05L134.143 27.554C133.853 28.2353 133.405 28.765 132.799 29.143C132.197 29.521 131.532 29.71 130.804 29.71ZM128.2 26.189V24.915H133.401V26.189H128.2ZM135.789 29.5V21.94H137.28V23.781L137.098 23.543C137.191 23.291 137.315 23.0623 137.469 22.857C137.627 22.647 137.816 22.4743 138.036 22.339C138.222 22.213 138.428 22.115 138.652 22.045C138.88 21.9703 139.114 21.926 139.352 21.912C139.59 21.8933 139.821 21.9027 140.045 21.94V23.515C139.821 23.4497 139.562 23.4287 139.268 23.452C138.978 23.4753 138.717 23.557 138.484 23.697C138.25 23.823 138.059 23.984 137.91 24.18C137.765 24.376 137.658 24.6 137.588 24.852C137.518 25.0993 137.483 25.3677 137.483 25.657V29.5H135.789ZM142.038 29.5V21.821C142.038 21.6297 142.045 21.4197 142.059 21.191C142.073 20.9577 142.113 20.7267 142.178 20.498C142.244 20.2693 142.363 20.0617 142.535 19.875C142.75 19.637 142.981 19.4737 143.228 19.385C143.48 19.2917 143.728 19.2403 143.97 19.231C144.213 19.217 144.425 19.21 144.607 19.21H145.552V20.582H144.677C144.355 20.582 144.115 20.6637 143.956 20.827C143.802 20.9857 143.725 21.1957 143.725 21.457V29.5H142.038ZM140.82 23.263V21.94H145.552V23.263H140.82ZM148.58 29.71C148.034 29.71 147.572 29.6073 147.194 29.402C146.816 29.192 146.529 28.9143 146.333 28.569C146.142 28.2237 146.046 27.8433 146.046 27.428C146.046 27.064 146.107 26.7373 146.228 26.448C146.35 26.154 146.536 25.902 146.788 25.692C147.04 25.4773 147.367 25.3023 147.768 25.167C148.072 25.069 148.426 24.9803 148.832 24.901C149.243 24.8217 149.686 24.7493 150.162 24.684C150.643 24.614 151.145 24.5393 151.667 24.46L151.065 24.803C151.07 24.2803 150.953 23.8953 150.715 23.648C150.477 23.4007 150.076 23.277 149.511 23.277C149.171 23.277 148.842 23.3563 148.524 23.515C148.207 23.6737 147.985 23.9467 147.859 24.334L146.319 23.851C146.506 23.2117 146.861 22.6983 147.383 22.311C147.911 21.9237 148.62 21.73 149.511 21.73C150.183 21.73 150.774 21.8397 151.282 22.059C151.796 22.2783 152.176 22.6377 152.423 23.137C152.559 23.403 152.64 23.676 152.668 23.956C152.696 24.2313 152.71 24.5323 152.71 24.859V29.5H151.233V27.862L151.478 28.128C151.138 28.674 150.739 29.0753 150.281 29.332C149.829 29.584 149.262 29.71 148.58 29.71ZM148.916 28.366C149.299 28.366 149.626 28.2983 149.896 28.163C150.167 28.0277 150.382 27.862 150.54 27.666C150.704 27.47 150.813 27.2857 150.869 27.113C150.958 26.8983 151.007 26.6533 151.016 26.378C151.03 26.098 151.037 25.8717 151.037 25.699L151.555 25.853C151.047 25.9323 150.61 26.0023 150.246 26.063C149.882 26.1237 149.57 26.182 149.308 26.238C149.047 26.2893 148.816 26.3477 148.615 26.413C148.419 26.483 148.254 26.5647 148.118 26.658C147.983 26.7513 147.878 26.8587 147.803 26.98C147.733 27.1013 147.698 27.2437 147.698 27.407C147.698 27.5937 147.745 27.7593 147.838 27.904C147.932 28.044 148.067 28.156 148.244 28.24C148.426 28.324 148.65 28.366 148.916 28.366ZM157.816 29.71C157.036 29.71 156.371 29.5373 155.821 29.192C155.27 28.842 154.848 28.366 154.554 27.764C154.264 27.162 154.117 26.4807 154.113 25.72C154.117 24.9453 154.269 24.2593 154.568 23.662C154.871 23.06 155.3 22.5887 155.856 22.248C156.411 21.9027 157.071 21.73 157.837 21.73C158.695 21.73 159.421 21.947 160.014 22.381C160.611 22.8103 161.001 23.3983 161.183 24.145L159.503 24.6C159.372 24.194 159.155 23.879 158.852 23.655C158.548 23.4263 158.203 23.312 157.816 23.312C157.377 23.312 157.015 23.417 156.731 23.627C156.446 23.8323 156.236 24.117 156.101 24.481C155.965 24.845 155.898 25.258 155.898 25.72C155.898 26.4387 156.059 27.0197 156.381 27.463C156.703 27.9063 157.181 28.128 157.816 28.128C158.264 28.128 158.616 28.0253 158.873 27.82C159.134 27.6147 159.33 27.3183 159.461 26.931L161.183 27.316C160.949 28.086 160.541 28.6787 159.958 29.094C159.374 29.5047 158.66 29.71 157.816 29.71ZM165.817 29.71C165.052 29.71 164.38 29.5443 163.801 29.213C163.223 28.8817 162.77 28.422 162.443 27.834C162.121 27.246 161.96 26.5693 161.96 25.804C161.96 24.978 162.119 24.2617 162.436 23.655C162.754 23.0437 163.195 22.57 163.759 22.234C164.324 21.898 164.977 21.73 165.719 21.73C166.503 21.73 167.168 21.9143 167.714 22.283C168.265 22.647 168.673 23.1627 168.939 23.83C169.205 24.4973 169.306 25.2837 169.24 26.189H167.567V25.573C167.563 24.7517 167.418 24.152 167.133 23.774C166.849 23.396 166.401 23.207 165.789 23.207C165.099 23.207 164.585 23.4217 164.249 23.851C163.913 24.2757 163.745 24.8987 163.745 25.72C163.745 26.4853 163.913 27.078 164.249 27.498C164.585 27.918 165.075 28.128 165.719 28.128C166.135 28.128 166.492 28.037 166.79 27.855C167.094 27.6683 167.327 27.4 167.49 27.05L169.156 27.554C168.867 28.2353 168.419 28.765 167.812 29.143C167.21 29.521 166.545 29.71 165.817 29.71ZM163.213 26.189V24.915H168.414V26.189H163.213Z" fill="#8A8A8A"/>
<defs>
<clipPath id="clip0_622_15074">
<rect width="24" height="24" fill="white" transform="translate(24 12)"/>
</clipPath>
</defs>
</svg>
