<svg width="21" height="20" viewBox="0 0 21 20" fill="none" xmlns="http://www.w3.org/2000/svg">
<path d="M9.66699 1.66675H8.00033C3.83366 1.66675 2.16699 3.33341 2.16699 7.50008V12.5001C2.16699 16.6667 3.83366 18.3334 8.00033 18.3334H13.0003C17.167 18.3334 18.8337 16.6667 18.8337 12.5001V10.8334" stroke="white" strokeWidth="1.5" strokeLinecap="round" strokeLinejoin="round"/>
<path d="M13.8666 2.51663L7.2999 9.0833C7.0499 9.3333 6.7999 9.82497 6.7499 10.1833L6.39157 12.6916C6.25823 13.6 6.8999 14.2333 7.80823 14.1083L10.3166 13.75C10.6666 13.7 11.1582 13.45 11.4166 13.2L17.9832 6.6333C19.1166 5.49997 19.6499 4.1833 17.9832 2.51663C16.3166 0.849966 14.9999 1.3833 13.8666 2.51663Z" stroke="white" strokeWidth="1.5" stroke-miterlimit="10" strokeLinecap="round" strokeLinejoin="round"/>
<path d="M12.9248 3.45825C13.4831 5.44992 15.0415 7.00825 17.0415 7.57492" stroke="white" strokeWidth="1.5" stroke-miterlimit="10" strokeLinecap="round" strokeLinejoin="round"/>
</svg>
