<svg width="33" height="33" viewBox="0 0 33 33" fill="none" xmlns="http://www.w3.org/2000/svg">
<path d="M12.5013 29.8332H20.5013C27.168 29.8332 29.8346 27.1665 29.8346 20.4998V12.4998C29.8346 5.83317 27.168 3.1665 20.5013 3.1665H12.5013C5.83464 3.1665 3.16797 5.83317 3.16797 12.4998V20.4998C3.16797 27.1665 5.83464 29.8332 12.5013 29.8332Z" stroke="#1261AC" stroke-width="1.5" stroke-linecap="round" stroke-linejoin="round"/>
<path d="M12.4987 13.8333C13.9715 13.8333 15.1654 12.6394 15.1654 11.1667C15.1654 9.69391 13.9715 8.5 12.4987 8.5C11.0259 8.5 9.83203 9.69391 9.83203 11.1667C9.83203 12.6394 11.0259 13.8333 12.4987 13.8333Z" stroke="#1261AC" stroke-width="1.5" stroke-linecap="round" stroke-linejoin="round"/>
<path d="M4.05859 25.7666L10.6319 21.3532C11.6853 20.6466 13.2053 20.7266 14.1519 21.5399L14.5919 21.9266C15.6319 22.8199 17.3119 22.8199 18.3519 21.9266L23.8986 17.1666C24.9386 16.2732 26.6186 16.2732 27.6586 17.1666L29.8319 19.0332" stroke="#1261AC" stroke-width="1.5" stroke-linecap="round" stroke-linejoin="round"/>
</svg>
