<svg width="128" height="37" viewBox="0 0 128 37" fill="none" xmlns="http://www.w3.org/2000/svg">
<circle cx="18.5" cy="18.5" r="18.5" fill="#74B4F1"/>
<g filter="url(#filter0_d_705_25280)">
<mask id="path-2-outside-1_705_25280" maskUnits="userSpaceOnUse" x="8.43359" y="8.62646" width="34" height="19" fill="black">
<rect fill="white" x="8.43359" y="8.62646" width="34" height="19"/>
<path fill-rule="evenodd" clip-rule="evenodd" d="M28.3212 24.8348C27.0501 23.898 24.2385 23.898 22.9675 24.8348C21.6622 25.7969 20.0491 26.3655 18.3031 26.3655C13.9569 26.3655 10.4336 22.8422 10.4336 18.496C10.4336 14.1498 13.9569 10.6265 18.3031 10.6265C20.0491 10.6265 21.6622 11.195 22.9675 12.1571C24.2385 13.094 27.0501 13.094 28.3212 12.1571C29.6265 11.195 31.2396 10.6265 32.9855 10.6265C37.3318 10.6265 40.8551 14.1498 40.8551 18.496C40.8551 22.8422 37.3318 26.3655 32.9855 26.3655C31.2396 26.3655 29.6265 25.7969 28.3212 24.8348Z"/>
</mask>
<path fill-rule="evenodd" clip-rule="evenodd" d="M28.3212 24.8348C27.0501 23.898 24.2385 23.898 22.9675 24.8348C21.6622 25.7969 20.0491 26.3655 18.3031 26.3655C13.9569 26.3655 10.4336 22.8422 10.4336 18.496C10.4336 14.1498 13.9569 10.6265 18.3031 10.6265C20.0491 10.6265 21.6622 11.195 22.9675 12.1571C24.2385 13.094 27.0501 13.094 28.3212 12.1571C29.6265 11.195 31.2396 10.6265 32.9855 10.6265C37.3318 10.6265 40.8551 14.1498 40.8551 18.496C40.8551 22.8422 37.3318 26.3655 32.9855 26.3655C31.2396 26.3655 29.6265 25.7969 28.3212 24.8348Z" fill="white"/>
<path d="M22.9675 12.1571L22.3408 13.0074L22.9675 12.1571ZM28.3212 12.1571L27.6944 11.3069L28.3212 12.1571ZM22.9675 24.8348L22.3408 23.9846L22.9675 24.8348ZM22.3408 23.9846C21.2109 24.8174 19.816 25.3092 18.3031 25.3092V27.4218C20.2822 27.4218 22.1135 26.7765 23.5942 25.6851L22.3408 23.9846ZM18.3031 25.3092C14.5403 25.3092 11.4899 22.2588 11.4899 18.496H9.3773C9.3773 23.4256 13.3735 27.4218 18.3031 27.4218V25.3092ZM11.4899 18.496C11.4899 14.7331 14.5403 11.6828 18.3031 11.6828V9.57017C13.3735 9.57017 9.3773 13.5664 9.3773 18.496H11.4899ZM18.3031 11.6828C19.816 11.6828 21.2109 12.1746 22.3408 13.0074L23.5942 11.3069C22.1135 10.2155 20.2822 9.57017 18.3031 9.57017V11.6828ZM28.9479 13.0074C30.0778 12.1746 31.4727 11.6828 32.9855 11.6828V9.57017C31.0065 9.57017 29.1751 10.2155 27.6944 11.3069L28.9479 13.0074ZM32.9855 11.6828C36.7484 11.6828 39.7988 14.7331 39.7988 18.496H41.9114C41.9114 13.5664 37.9151 9.57017 32.9855 9.57017V11.6828ZM39.7988 18.496C39.7988 22.2588 36.7484 25.3092 32.9855 25.3092V27.4218C37.9151 27.4218 41.9114 23.4256 41.9114 18.496H39.7988ZM32.9855 25.3092C31.4727 25.3092 30.0778 24.8174 28.9479 23.9846L27.6944 25.6851C29.1751 26.7765 31.0065 27.4218 32.9855 27.4218V25.3092ZM22.3408 13.0074C23.2319 13.6642 24.5119 13.9161 25.6443 13.9161C26.7768 13.9161 28.0568 13.6642 28.9479 13.0074L27.6944 11.3069C27.3145 11.5869 26.5532 11.8035 25.6443 11.8035C24.7355 11.8035 23.9741 11.5869 23.5942 11.3069L22.3408 13.0074ZM23.5942 25.6851C23.9741 25.4051 24.7355 25.1885 25.6443 25.1885C26.5532 25.1885 27.3145 25.4051 27.6944 25.6851L28.9479 23.9846C28.0568 23.3277 26.7768 23.0759 25.6443 23.0759C24.5119 23.0759 23.2319 23.3277 22.3408 23.9846L23.5942 25.6851Z" fill="#1261AC" mask="url(#path-2-outside-1_705_25280)"/>
</g>
<circle cx="18.5432" cy="18.5419" r="2.92214" fill="black"/>
<circle cx="34.0784" cy="18.5419" r="2.92214" fill="black"/>
<circle cx="25.7885" cy="30.1581" r="1.78851" fill="white"/>
<path fill-rule="evenodd" clip-rule="evenodd" d="M115.498 6.55371C122.188 6.55371 127.611 11.9769 127.611 18.6666V30.4462H57.8916C51.2938 30.4462 45.9453 25.0977 45.9453 18.5C45.9453 11.9022 51.2938 6.55371 57.8916 6.55371H115.498ZM54.31 23.2727C54.928 23.7239 55.7372 23.9495 56.7377 23.9495C57.7775 23.9495 58.5917 23.7165 59.1802 23.2506C59.7688 22.7847 60.0631 22.1446 60.0631 21.3305C60.0631 20.9185 59.9797 20.5678 59.8129 20.2784C59.6462 19.9841 59.3789 19.734 59.011 19.528C58.6481 19.3171 58.165 19.1332 57.5617 18.9762C56.9437 18.8193 56.4827 18.6918 56.1786 18.5937C55.8794 18.4956 55.6808 18.4 55.5827 18.3068C55.4895 18.2136 55.4429 18.0983 55.4429 17.961C55.4429 17.7305 55.5533 17.5539 55.774 17.4313C55.9996 17.3087 56.2963 17.2596 56.6642 17.2842C57.0418 17.3136 57.341 17.4141 57.5617 17.5858C57.7824 17.7575 57.9099 17.9904 57.9443 18.2847L59.9895 17.9169C59.9208 17.4362 59.7369 17.0193 59.4377 16.6662C59.1435 16.3131 58.756 16.0408 58.2753 15.8496C57.7947 15.6583 57.2429 15.5626 56.62 15.5626C55.9775 15.5626 55.4184 15.6656 54.9427 15.8716C54.4718 16.0727 54.1064 16.3621 53.8465 16.7398C53.5865 17.1125 53.4566 17.5539 53.4566 18.064C53.4566 18.4711 53.5424 18.8193 53.7141 19.1087C53.8857 19.3931 54.1653 19.6384 54.5527 19.8444C54.9402 20.0504 55.4576 20.2367 56.1051 20.4035C56.6789 20.5555 57.1007 20.6781 57.3704 20.7713C57.6451 20.8645 57.8217 20.9602 57.9001 21.0583C57.9786 21.1514 58.0179 21.2765 58.0179 21.4335C58.0179 21.6836 57.9198 21.8798 57.7236 22.022C57.5274 22.1593 57.2478 22.228 56.8849 22.228C56.4435 22.228 56.0781 22.1226 55.7887 21.9117C55.5042 21.7008 55.3203 21.4089 55.2369 21.0362L53.1917 21.3452C53.3241 22.1741 53.6969 22.8166 54.31 23.2727ZM64.3871 23.8612C64.9168 23.8759 65.4563 23.8318 66.0056 23.7288V22.0661C65.5348 22.1299 65.1056 22.1495 64.7182 22.125C64.3307 22.1005 64.0487 21.9484 63.8721 21.6689C63.7789 21.5217 63.7274 21.3256 63.7176 21.0803C63.7127 20.8302 63.7103 20.5506 63.7103 20.2416V17.3283H66.0056V15.7834H63.7103V13.5763H61.7092V15.7834H60.3555V17.3283H61.7092V20.3593C61.7092 20.8351 61.7141 21.2618 61.7239 21.6394C61.7337 22.0122 61.8367 22.38 62.0329 22.743C62.2487 23.1304 62.5626 23.4125 62.9746 23.589C63.3915 23.7607 63.8623 23.8514 64.3871 23.8612ZM68.3751 23.4125C68.9784 23.7705 69.6797 23.9495 70.4792 23.9495C71.2737 23.9495 71.9726 23.773 72.5759 23.4198C73.1841 23.0618 73.6574 22.5689 73.9958 21.9411C74.3391 21.3084 74.5108 20.5801 74.5108 19.7561C74.5108 18.937 74.3416 18.2136 74.0031 17.5858C73.6647 16.9531 73.1914 16.4577 72.5833 16.0997C71.98 15.7417 71.2786 15.5626 70.4792 15.5626C69.6944 15.5626 69.0004 15.7392 68.3972 16.0923C67.7939 16.4455 67.3206 16.9384 66.9773 17.5711C66.634 18.1989 66.4623 18.9272 66.4623 19.7561C66.4623 20.5751 66.6291 21.301 66.9626 21.9337C67.301 22.5615 67.7718 23.0544 68.3751 23.4125ZM71.9138 21.4335C71.5999 21.8651 71.1217 22.0809 70.4792 22.0809C69.8563 22.0809 69.383 21.8724 69.0593 21.4555C68.7405 21.0337 68.5811 20.4672 68.5811 19.7561C68.5811 19.295 68.6473 18.8904 68.7797 18.5422C68.9171 18.194 69.1255 17.9218 69.4051 17.7256C69.6846 17.5294 70.0427 17.4313 70.4792 17.4313C71.1119 17.4313 71.5876 17.6422 71.9064 18.064C72.2301 18.4858 72.392 19.0498 72.392 19.7561C72.392 20.4378 72.2326 20.9969 71.9138 21.4335ZM85.2512 19.0351V23.7288H87.2522V18.5054C87.2522 17.6373 87.0193 16.9359 86.5533 16.4013C86.0923 15.8618 85.4081 15.5921 84.5007 15.5921C83.9711 15.5921 83.4879 15.7098 83.0514 15.9452C82.6518 16.1587 82.3257 16.452 82.0733 16.8252C81.885 16.4865 81.625 16.2079 81.2931 15.9893C80.8959 15.7245 80.3858 15.5921 79.7629 15.5921C79.2185 15.5921 78.7256 15.7122 78.2842 15.9526C77.9506 16.1362 77.6686 16.37 77.4381 16.6539V15.7834H75.6725V23.7288H77.6883V18.9174C77.6883 18.4613 77.8133 18.091 78.0635 17.8065C78.3185 17.5171 78.6545 17.3724 79.0714 17.3724C79.5079 17.3724 79.8487 17.5196 80.094 17.8139C80.3441 18.1032 80.4692 18.5103 80.4692 19.0351V23.7288H82.4702V18.9174C82.4702 18.6133 82.5266 18.346 82.6395 18.1155C82.7572 17.8801 82.919 17.6986 83.125 17.5711C83.331 17.4387 83.5738 17.3724 83.8533 17.3724C84.2898 17.3724 84.6307 17.5196 84.8759 17.8139C85.1261 18.1032 85.2512 18.5103 85.2512 19.0351ZM90.7249 23.4519C91.2404 23.7836 91.8731 23.9495 92.623 23.9495C93.3538 23.9495 93.9938 23.7656 94.5432 23.3977C95.0925 23.0299 95.5192 22.5296 95.8233 21.8969C96.1322 21.2642 96.2867 20.5506 96.2867 19.7561C96.2867 18.9468 96.1298 18.2283 95.8159 17.6005C95.5069 16.9678 95.0704 16.47 94.5064 16.1071C93.9423 15.7441 93.2802 15.5626 92.52 15.5626C91.7647 15.5626 91.1295 15.7466 90.6146 16.1144C90.5669 16.1485 90.5203 16.1836 90.4748 16.22V15.7834H88.7091V27.2601H90.7249V23.4519ZM90.4748 19.7561C90.4748 19.2754 90.5336 18.8536 90.6513 18.4907C90.7691 18.1278 90.9554 17.8457 91.2105 17.6446C91.4704 17.4436 91.8088 17.343 92.2257 17.343C92.672 17.343 93.0374 17.4534 93.3219 17.6741C93.6113 17.8899 93.8246 18.1817 93.962 18.5495C94.0993 18.9125 94.1679 19.3147 94.1679 19.7561C94.1679 20.2024 94.1017 20.6095 93.9693 20.9773C93.8369 21.3403 93.6333 21.6296 93.3587 21.8454C93.084 22.0612 92.7309 22.1691 92.2993 22.1691C91.853 22.1691 91.4949 22.0686 91.2252 21.8675C90.9603 21.6664 90.7691 21.3844 90.6513 21.0215C90.5336 20.6585 90.4748 20.2367 90.4748 19.7561ZM97.9255 23.2727C98.5435 23.7239 99.3527 23.9495 100.353 23.9495C101.393 23.9495 102.207 23.7165 102.796 23.2506C103.384 22.7847 103.679 22.1446 103.679 21.3305C103.679 20.9185 103.595 20.5678 103.428 20.2784C103.262 19.9841 102.994 19.734 102.627 19.528C102.264 19.3171 101.781 19.1332 101.177 18.9762C100.559 18.8193 100.098 18.6918 99.7941 18.5937C99.495 18.4956 99.2963 18.4 99.1982 18.3068C99.105 18.2136 99.0585 18.0983 99.0585 17.961C99.0585 17.7305 99.1688 17.5539 99.3895 17.4313C99.6151 17.3087 99.9119 17.2596 100.28 17.2842C100.657 17.3136 100.957 17.4141 101.177 17.5858C101.398 17.7575 101.525 17.9904 101.56 18.2847L103.605 17.9169C103.536 17.4362 103.352 17.0193 103.053 16.6662C102.759 16.3131 102.372 16.0408 101.891 15.8496C101.41 15.6583 100.858 15.5626 100.236 15.5626C99.5931 15.5626 99.0339 15.6656 98.5582 15.8716C98.0873 16.0727 97.722 16.3621 97.462 16.7398C97.2021 17.1125 97.0721 17.5539 97.0721 18.064C97.0721 18.4711 97.1579 18.8193 97.3296 19.1087C97.5012 19.3931 97.7808 19.6384 98.1683 19.8444C98.5557 20.0504 99.0732 20.2367 99.7206 20.4035C100.294 20.5555 100.716 20.6781 100.986 20.7713C101.261 20.8645 101.437 20.9602 101.516 21.0583C101.594 21.1514 101.633 21.2765 101.633 21.4335C101.633 21.6836 101.535 21.8798 101.339 22.022C101.143 22.1593 100.863 22.228 100.5 22.228C100.059 22.228 99.6936 22.1226 99.4042 21.9117C99.1198 21.7008 98.9358 21.4089 98.8525 21.0362L96.8072 21.3452C96.9397 22.1741 97.3124 22.8166 97.9255 23.2727ZM105.178 21.7277V23.7288H107.179V21.7277H105.178ZM109.273 12.9142V14.6798H111.274V12.9142H109.273ZM111.274 15.7834H109.273V23.7288H111.274V15.7834ZM114.509 23.4125C115.112 23.7705 115.814 23.9495 116.613 23.9495C117.408 23.9495 118.107 23.773 118.71 23.4198C119.318 23.0618 119.791 22.5689 120.13 21.9411C120.473 21.3084 120.645 20.5801 120.645 19.7561C120.645 18.937 120.476 18.2136 120.137 17.5858C119.799 16.9531 119.326 16.4577 118.717 16.0997C118.114 15.7417 117.413 15.5626 116.613 15.5626C115.829 15.5626 115.135 15.7392 114.531 16.0923C113.928 16.4455 113.455 16.9384 113.111 17.5711C112.768 18.1989 112.596 18.9272 112.596 19.7561C112.596 20.5751 112.763 21.301 113.097 21.9337C113.435 22.5615 113.906 23.0544 114.509 23.4125ZM118.048 21.4335C117.734 21.8651 117.256 22.0809 116.613 22.0809C115.99 22.0809 115.517 21.8724 115.193 21.4555C114.875 21.0337 114.715 20.4672 114.715 19.7561C114.715 19.295 114.781 18.8904 114.914 18.5422C115.051 18.194 115.26 17.9218 115.539 17.7256C115.819 17.5294 116.177 17.4313 116.613 17.4313C117.246 17.4313 117.722 17.6422 118.041 18.064C118.364 18.4858 118.526 19.0498 118.526 19.7561C118.526 20.4378 118.367 20.9969 118.048 21.4335Z" fill="#1261AC"/>
<defs>
<filter id="filter0_d_705_25280" x="8.16034" y="9.57019" width="33.7498" height="18.2947" filterUnits="userSpaceOnUse" color-interpolation-filters="sRGB">
<feFlood flood-opacity="0" result="BackgroundImageFix"/>
<feColorMatrix in="SourceAlpha" type="matrix" values="0 0 0 0 0 0 0 0 0 0 0 0 0 0 0 0 0 0 127 0" result="hardAlpha"/>
<feOffset dx="-1.21856" dy="0.443114"/>
<feComposite in2="hardAlpha" operator="out"/>
<feColorMatrix type="matrix" values="0 0 0 0 0.0705882 0 0 0 0 0.380392 0 0 0 0 0.67451 0 0 0 1 0"/>
<feBlend mode="normal" in2="BackgroundImageFix" result="effect1_dropShadow_705_25280"/>
<feBlend mode="normal" in="SourceGraphic" in2="effect1_dropShadow_705_25280" result="shape"/>
</filter>
</defs>
</svg>
