<svg width="272" height="48" viewBox="0 0 272 48" fill="none" xmlns="http://www.w3.org/2000/svg">
<path d="M27 16.5H45" stroke="#8A8A8A" stroke-width="1.5" stroke-linecap="round" stroke-linejoin="round"/>
<path d="M27 21.5H36.47" stroke="#8A8A8A" stroke-width="1.5" stroke-linecap="round" stroke-linejoin="round"/>
<path d="M27 26.5H45" stroke="#8A8A8A" stroke-width="1.5" stroke-linecap="round" stroke-linejoin="round"/>
<path d="M27 31.5H36.47" stroke="#8A8A8A" stroke-width="1.5" stroke-linecap="round" stroke-linejoin="round"/>
<path d="M75.402 29.5V21.002H72.14V19.42H80.351V21.002H77.089V29.5H75.402ZM83.7861 29.71C83.0208 29.71 82.3488 29.5443 81.7701 29.213C81.1915 28.8817 80.7388 28.422 80.4121 27.834C80.0901 27.246 79.9291 26.5693 79.9291 25.804C79.9291 24.978 80.0878 24.2617 80.4051 23.655C80.7225 23.0437 81.1635 22.57 81.7281 22.234C82.2928 21.898 82.9461 21.73 83.6881 21.73C84.4721 21.73 85.1371 21.9143 85.6831 22.283C86.2338 22.647 86.6421 23.1627 86.9081 23.83C87.1741 24.4973 87.2745 25.2837 87.2091 26.189H85.5361V25.573C85.5315 24.7517 85.3868 24.152 85.1021 23.774C84.8175 23.396 84.3695 23.207 83.7581 23.207C83.0675 23.207 82.5541 23.4217 82.2181 23.851C81.8821 24.2757 81.7141 24.8987 81.7141 25.72C81.7141 26.4853 81.8821 27.078 82.2181 27.498C82.5541 27.918 83.0441 28.128 83.6881 28.128C84.1035 28.128 84.4605 28.037 84.7591 27.855C85.0625 27.6683 85.2958 27.4 85.4591 27.05L87.1251 27.554C86.8358 28.2353 86.3878 28.765 85.7811 29.143C85.1791 29.521 84.5141 29.71 83.7861 29.71ZM81.1821 26.189V24.915H86.3831V26.189H81.1821ZM87.6576 29.5L90.4226 25.678L87.7136 21.94H89.7016L91.4026 24.355L93.0756 21.94H95.0636L92.3546 25.678L95.1336 29.5H93.1456L91.4026 27.001L89.6456 29.5H87.6576ZM100.681 29.5C100.181 29.5933 99.6912 29.633 99.2105 29.619C98.7345 29.6097 98.3075 29.5233 97.9295 29.36C97.5515 29.192 97.2645 28.9283 97.0685 28.569C96.8959 28.2423 96.8049 27.9087 96.7955 27.568C96.7862 27.2273 96.7815 26.8423 96.7815 26.413V19.84H98.4615V26.315C98.4615 26.6183 98.4639 26.8843 98.4685 27.113C98.4779 27.3417 98.5269 27.5283 98.6155 27.673C98.7835 27.953 99.0519 28.1093 99.4205 28.142C99.7892 28.1747 100.209 28.156 100.681 28.086V29.5ZM95.4095 23.263V21.94H100.681V23.263H95.4095Z" fill="#8A8A8A"/>
</svg>
