<svg width="64" height="64" viewBox="0 0 64 64" fill="none" xmlns="http://www.w3.org/2000/svg">
<g clip-path="url(#clip0_1572_9273)">
<path d="M0 32C0 14.3269 14.3269 0 32 0C49.6731 0 64 14.3269 64 32V64H32C14.3269 64 0 49.6731 0 32Z" fill="#0C4173"/>
<circle cx="32.0197" cy="32.6203" r="20.5588" fill="#74B4F1"/>
<g filter="url(#filter0_d_1572_9273)">
<mask id="path-3-outside-1_1572_9273" maskUnits="userSpaceOnUse" x="3.98438" y="21.8706" width="37" height="21" fill="black">
<rect fill="white" x="3.98438" y="21.8706" width="37" height="21"/>
<path fill-rule="evenodd" clip-rule="evenodd" d="M25.8631 39.6603C24.4505 38.6192 21.3255 38.6192 19.9129 39.6603C18.4624 40.7294 16.6698 41.3612 14.7297 41.3612C9.89977 41.3612 5.98438 37.4458 5.98438 32.6159C5.98438 27.786 9.89977 23.8706 14.7297 23.8706C16.6698 23.8706 18.4624 24.5024 19.9129 25.5714C21.3255 26.6126 24.4505 26.6126 25.8631 25.5714C27.3136 24.5024 29.1062 23.8706 31.0463 23.8706C35.8762 23.8706 39.7916 27.786 39.7916 32.6159C39.7916 37.4458 35.8762 41.3612 31.0463 41.3612C29.1062 41.3612 27.3136 40.7294 25.8631 39.6603Z"/>
</mask>
<path fill-rule="evenodd" clip-rule="evenodd" d="M25.8631 39.6603C24.4505 38.6192 21.3255 38.6192 19.9129 39.6603C18.4624 40.7294 16.6698 41.3612 14.7297 41.3612C9.89977 41.3612 5.98438 37.4458 5.98438 32.6159C5.98438 27.786 9.89977 23.8706 14.7297 23.8706C16.6698 23.8706 18.4624 24.5024 19.9129 25.5714C21.3255 26.6126 24.4505 26.6126 25.8631 25.5714C27.3136 24.5024 29.1062 23.8706 31.0463 23.8706C35.8762 23.8706 39.7916 27.786 39.7916 32.6159C39.7916 37.4458 35.8762 41.3612 31.0463 41.3612C29.1062 41.3612 27.3136 40.7294 25.8631 39.6603Z" fill="white"/>
<path d="M25.8631 25.5714L25.1667 24.6265L25.8631 25.5714ZM19.9129 39.6603L19.2164 38.7154L19.9129 39.6603ZM19.2164 38.7154C17.9608 39.6408 16.4108 40.1873 14.7297 40.1873V42.535C16.9288 42.535 18.9639 41.818 20.6093 40.6053L19.2164 38.7154ZM14.7297 40.1873C10.5481 40.1873 7.15822 36.7975 7.15822 32.6159H4.81053C4.81053 38.0941 9.25147 42.535 14.7297 42.535V40.1873ZM7.15822 32.6159C7.15822 28.4343 10.5481 25.0445 14.7297 25.0445V22.6968C9.25147 22.6968 4.81053 27.1377 4.81053 32.6159H7.15822ZM14.7297 25.0445C16.4108 25.0445 17.9608 25.591 19.2164 26.5164L20.6093 24.6265C18.9639 23.4138 16.9288 22.6968 14.7297 22.6968V25.0445ZM26.5595 26.5164C27.8151 25.591 29.3652 25.0445 31.0463 25.0445V22.6968C28.8472 22.6968 26.8121 23.4138 25.1667 24.6265L26.5595 26.5164ZM31.0463 25.0445C35.2279 25.0445 38.6178 28.4343 38.6178 32.6159H40.9655C40.9655 27.1377 36.5245 22.6968 31.0463 22.6968V25.0445ZM38.6178 32.6159C38.6178 36.7975 35.2279 40.1873 31.0463 40.1873V42.535C36.5245 42.535 40.9655 38.0941 40.9655 32.6159H38.6178ZM31.0463 40.1873C29.3652 40.1873 27.8151 39.6408 26.5595 38.7154L25.1667 40.6053C26.8121 41.818 28.8472 42.535 31.0463 42.535V40.1873ZM19.2164 26.5164C20.2068 27.2463 21.6294 27.5261 22.888 27.5261C24.1466 27.5261 25.5692 27.2463 26.5595 26.5164L25.1667 24.6265C24.7444 24.9377 23.8982 25.1784 22.888 25.1784C21.8778 25.1784 21.0316 24.9377 20.6093 24.6265L19.2164 26.5164ZM20.6093 40.6053C21.0316 40.2941 21.8778 40.0533 22.888 40.0533C23.8982 40.0533 24.7444 40.2941 25.1667 40.6053L26.5595 38.7154C25.5692 37.9855 24.1466 37.7057 22.888 37.7057C21.6294 37.7057 20.2068 37.9855 19.2164 38.7154L20.6093 40.6053Z" fill="#1261AC" mask="url(#path-3-outside-1_1572_9273)"/>
</g>
<circle cx="13.7161" cy="32.6669" r="3.24733" fill="black"/>
<circle cx="30.9817" cy="32.6669" r="3.24733" fill="black"/>
<circle cx="23.0579" cy="45.5758" r="1.98754" fill="white"/>
</g>
<defs>
<filter id="filter0_d_1572_9273" x="4.8125" y="22.6968" width="37.7904" height="20.3307" filterUnits="userSpaceOnUse" color-interpolation-filters="sRGB">
<feFlood flood-opacity="0" result="BackgroundImageFix"/>
<feColorMatrix in="SourceAlpha" type="matrix" values="0 0 0 0 0 0 0 0 0 0 0 0 0 0 0 0 0 0 127 0" result="hardAlpha"/>
<feOffset dx="1.63413" dy="0.492426"/>
<feComposite in2="hardAlpha" operator="out"/>
<feColorMatrix type="matrix" values="0 0 0 0 0.0705882 0 0 0 0 0.380392 0 0 0 0 0.67451 0 0 0 1 0"/>
<feBlend mode="normal" in2="BackgroundImageFix" result="effect1_dropShadow_1572_9273"/>
<feBlend mode="normal" in="SourceGraphic" in2="effect1_dropShadow_1572_9273" result="shape"/>
</filter>
<clipPath id="clip0_1572_9273">
<rect width="64" height="64" fill="white"/>
</clipPath>
</defs>
</svg>
