<svg width="24" height="24" viewBox="0 0 24 24" fill="none" xmlns="http://www.w3.org/2000/svg">
<g id="designtools" clip-path="url(#clip0_329_137)">
<path id="Vector" d="M21.8095 3.94C20.2695 7.78 16.4095 13 13.1795 15.59L11.2095 17.17C10.9595 17.35 10.7095 17.51 10.4295 17.62C10.4295 17.44 10.4195 17.24 10.3895 17.05C10.2795 16.21 9.89953 15.43 9.22953 14.76C8.54953 14.08 7.71953 13.68 6.86953 13.57C6.66953 13.56 6.46953 13.54 6.26953 13.56C6.37953 13.25 6.54953 12.96 6.75953 12.72L8.31953 10.75C10.8995 7.52 16.1395 3.64 19.9695 2.11C20.5595 1.89 21.1295 2.05 21.4895 2.42C21.8695 2.79 22.0495 3.36 21.8095 3.94Z" stroke="#1261AC" stroke-width="1.5" stroke-linecap="round" stroke-linejoin="round"/>
<path id="Vector_2" d="M10.4303 17.62C10.4303 18.72 10.0103 19.77 9.22027 20.57C8.61027 21.18 7.78027 21.6 6.79027 21.73L4.33027 22C2.99027 22.15 1.84027 21.01 2.00027 19.65L2.27027 17.19C2.51027 15 4.34027 13.6 6.28027 13.56C6.48027 13.55 6.69027 13.56 6.88027 13.57C7.73027 13.68 8.56027 14.07 9.24027 14.76C9.91027 15.43 10.2903 16.21 10.4003 17.05C10.4103 17.24 10.4303 17.43 10.4303 17.62Z" stroke="#1261AC" stroke-width="1.5" stroke-linecap="round" stroke-linejoin="round"/>
<path id="Vector_3" d="M14.24 14.47C14.24 11.86 12.12 9.73999 9.50999 9.73999" stroke="#1261AC" stroke-width="1.5" stroke-linecap="round" stroke-linejoin="round"/>
<path id="Vector_4" d="M20.1197 12.73L20.8597 13.46C22.3497 14.95 22.3497 16.42 20.8597 17.91L17.8997 20.87C16.4297 22.34 14.9397 22.34 13.4697 20.87" stroke="#1261AC" stroke-width="1.5" stroke-linecap="round"/>
<path id="Vector_5" d="M3.11031 10.51C1.64031 9.02 1.64031 7.55 3.11031 6.06L6.07031 3.1C7.54031 1.63 9.03031 1.63 10.5003 3.1L11.2403 3.84" stroke="#1261AC" stroke-width="1.5" stroke-linecap="round"/>
<path id="Vector_6" d="M11.25 3.85001L7.55 7.55001" stroke="#1261AC" stroke-width="1.5" stroke-linecap="round"/>
<path id="Vector_7" d="M20.12 12.73L17.16 15.68" stroke="#1261AC" stroke-width="1.5" stroke-linecap="round"/>
</g>
<defs>
<clipPath id="clip0_329_137">
<rect width="24" height="24" fill="white"/>
</clipPath>
</defs>
</svg>
