<svg width="24" height="24" viewBox="0 0 24 24" fill="none" xmlns="http://www.w3.org/2000/svg">
<g id="vuesax/linear/convert-3d-cube">
<g id="convert-3d-cube">
<g id="Group">
<path id="Vector" d="M22.001 15C22.001 18.87 18.871 22 15.001 22L16.051 20.25" stroke="#1261AC" strokeWidth="1.5" strokeLinecap="round" strokeLinejoin="round"/>
<path id="Vector_2" d="M2.00098 9C2.00098 5.13 5.13098 2 9.00098 2L7.95097 3.75" stroke="#1261AC" strokeWidth="1.5" strokeLinecap="round" strokeLinejoin="round"/>
</g>
<g id="Group_2">
<g id="Group_3">
<path id="Vector_3" d="M13.7002 4.44995L17.6802 6.74994L21.6202 4.45996" stroke="#1261AC" strokeWidth="1.5" strokeLinecap="round" strokeLinejoin="round"/>
<path id="Vector_4" d="M17.6807 10.82V6.73999" stroke="#1261AC" strokeWidth="1.5" strokeLinecap="round" strokeLinejoin="round"/>
</g>
<path id="Vector_5" d="M16.7406 2.21L14.3406 3.53996C13.8006 3.83996 13.3506 4.59995 13.3506 5.21995V7.75999C13.3506 8.37999 13.7906 9.13998 14.3406 9.43998L16.7406 10.77C17.2506 11.06 18.0906 11.06 18.6106 10.77L21.0106 9.43998C21.5506 9.13998 22.0006 8.37999 22.0006 7.75999V5.21995C22.0006 4.59995 21.5606 3.83996 21.0106 3.53996L18.6106 2.21C18.1006 1.93 17.2606 1.93 16.7406 2.21Z" stroke="#1261AC" strokeWidth="1.5" strokeLinecap="round" strokeLinejoin="round"/>
</g>
<g id="Group_4">
<g id="Group_5">
<path id="Vector_6" d="M2.35059 15.4502L6.32059 17.7502L10.2706 15.4602" stroke="#1261AC" strokeWidth="1.5" strokeLinecap="round" strokeLinejoin="round"/>
<path id="Vector_7" d="M6.32031 21.8203V17.7402" stroke="#1261AC" strokeWidth="1.5" strokeLinecap="round" strokeLinejoin="round"/>
</g>
<path id="Vector_8" d="M5.39098 13.21L2.99098 14.54C2.45098 14.84 2.00098 15.5999 2.00098 16.2199V18.76C2.00098 19.38 2.44098 20.14 2.99098 20.44L5.39098 21.77C5.90098 22.06 6.74097 22.06 7.26097 21.77L9.66098 20.44C10.201 20.14 10.651 19.38 10.651 18.76V16.2199C10.651 15.5999 10.211 14.84 9.66098 14.54L7.26097 13.21C6.74097 12.93 5.90098 12.93 5.39098 13.21Z" stroke="#1261AC" strokeWidth="1.5" strokeLinecap="round" strokeLinejoin="round"/>
</g>
</g>
</g>
</svg>
