<svg width="120" height="32" viewBox="0 0 180 52" fill="none" xmlns="http://www.w3.org/2000/svg">
<circle cx="26" cy="26" r="26" fill="#74B4F1"/>
<g filter="url(#filter0_d_708_1229)">
<mask id="path-2-outside-1_708_1229" maskUnits="userSpaceOnUse" x="12.6617" y="12.9344" width="47" height="26" fill="black">
<rect fill="white" x="12.6617" y="12.9344" width="47" height="26"/>
<path fill-rule="evenodd" clip-rule="evenodd" d="M39.802 34.9033C38.0154 33.5866 34.063 33.5866 32.2765 34.9033C30.4421 36.2552 28.1751 37.0542 25.7216 37.0542C19.6134 37.0542 14.6617 32.1025 14.6617 25.9943C14.6617 19.8861 19.6134 14.9344 25.7216 14.9344C28.1751 14.9344 30.4421 15.7334 32.2765 17.0853C34.063 18.402 38.0154 18.402 39.802 17.0853C41.6363 15.7334 43.9033 14.9344 46.3569 14.9344C52.4651 14.9344 57.4167 19.8861 57.4167 25.9943C57.4167 32.1025 52.4651 37.0542 46.3569 37.0542C43.9033 37.0542 41.6363 36.2552 39.802 34.9033Z"/>
</mask>
<path fill-rule="evenodd" clip-rule="evenodd" d="M39.802 34.9033C38.0154 33.5866 34.063 33.5866 32.2765 34.9033C30.4421 36.2552 28.1751 37.0542 25.7216 37.0542C19.6134 37.0542 14.6617 32.1025 14.6617 25.9943C14.6617 19.8861 19.6134 14.9344 25.7216 14.9344C28.1751 14.9344 30.4421 15.7334 32.2765 17.0853C34.063 18.402 38.0154 18.402 39.802 17.0853C41.6363 15.7334 43.9033 14.9344 46.3569 14.9344C52.4651 14.9344 57.4167 19.8861 57.4167 25.9943C57.4167 32.1025 52.4651 37.0542 46.3569 37.0542C43.9033 37.0542 41.6363 36.2552 39.802 34.9033Z" fill="white"/>
<path d="M39.802 34.9033L38.9212 36.0983L39.802 34.9033ZM31.3957 33.7083C29.8078 34.8785 27.8476 35.5697 25.7216 35.5697V38.5387C28.5027 38.5387 31.0763 37.6319 33.1572 36.0983L31.3957 33.7083ZM25.7216 35.5697C20.4332 35.5697 16.1462 31.2826 16.1462 25.9943H13.1772C13.1772 32.9224 18.7935 38.5387 25.7216 38.5387V35.5697ZM16.1462 25.9943C16.1462 20.706 20.4332 16.419 25.7216 16.419V13.4499C18.7935 13.4499 13.1772 19.0662 13.1772 25.9943H16.1462ZM25.7216 16.419C27.8476 16.419 29.8078 17.1101 31.3957 18.2804L33.1572 15.8903C31.0763 14.3567 28.5027 13.4499 25.7216 13.4499V16.419ZM40.6827 18.2804C42.2706 17.1101 44.2309 16.419 46.3569 16.419V13.4499C43.5758 13.4499 41.0021 14.3567 38.9212 15.8903L40.6827 18.2804ZM46.3569 16.419C51.6452 16.419 55.9322 20.706 55.9322 25.9943H58.9013C58.9013 19.0662 53.285 13.4499 46.3569 13.4499V16.419ZM55.9322 25.9943C55.9322 31.2826 51.6452 35.5697 46.3569 35.5697V38.5387C53.285 38.5387 58.9013 32.9224 58.9013 25.9943H55.9322ZM46.3569 35.5697C44.2309 35.5697 42.2706 34.8785 40.6827 33.7083L38.9212 36.0983C41.0021 37.6319 43.5758 38.5387 46.3569 38.5387V35.5697ZM31.3957 18.2804C32.6482 19.2035 34.4474 19.5574 36.0392 19.5574C37.631 19.5574 39.4302 19.2035 40.6827 18.2804L38.9212 15.8903C38.3872 16.2839 37.3169 16.5883 36.0392 16.5883C34.7616 16.5883 33.6912 16.2839 33.1572 15.8903L31.3957 18.2804ZM33.1572 36.0983C33.6912 35.7048 34.7616 35.4003 36.0392 35.4003C37.3169 35.4003 38.3872 35.7048 38.9212 36.0983L40.6827 33.7083C39.4302 32.7852 37.631 32.4313 36.0392 32.4313C34.4474 32.4313 32.6482 32.7852 31.3957 33.7083L33.1572 36.0983Z" fill="#1261AC" mask="url(#path-2-outside-1_708_1229)"/>
</g>
<circle cx="26.059" cy="26.059" r="4.1068" fill="black"/>
<circle cx="47.8932" cy="26.0591" r="4.1068" fill="black"/>
<circle cx="36.2458" cy="42.3844" r="2.51358" fill="white"/>
<path fill-rule="evenodd" clip-rule="evenodd" d="M162.322 9.21069C171.724 9.21069 179.346 16.8324 179.346 26.2343V42.7894H81.3624C72.0899 42.7894 64.5731 35.2725 64.5731 26C64.5731 16.7275 72.0899 9.21069 81.3624 9.21069H162.322ZM76.3302 32.221C77.1987 32.8552 78.336 33.1723 79.7422 33.1723C81.2035 33.1723 82.3477 32.8449 83.1749 32.19C84.002 31.5352 84.4156 30.6357 84.4156 29.4914C84.4156 28.9124 84.2984 28.4196 84.0641 28.0129C83.8297 27.5993 83.4541 27.2478 82.9371 26.9583C82.427 26.6619 81.748 26.4034 80.9002 26.1828C80.0317 25.9622 79.3838 25.783 78.9564 25.6452C78.5359 25.5073 78.2568 25.3729 78.1189 25.2419C77.9879 25.111 77.9225 24.949 77.9225 24.756C77.9225 24.432 78.0775 24.1839 78.3877 24.0115C78.7048 23.8392 79.1218 23.7703 79.6388 23.8047C80.1696 23.8461 80.59 23.9874 80.9002 24.2287C81.2104 24.4699 81.3896 24.7973 81.4379 25.2109L84.3122 24.6939C84.2157 24.0184 83.9572 23.4325 83.5368 22.9362C83.1232 22.4399 82.5786 22.0574 81.9031 21.7886C81.2276 21.5197 80.4522 21.3853 79.5768 21.3853C78.6738 21.3853 77.888 21.5301 77.2194 21.8196C76.5577 22.1022 76.0441 22.5089 75.6788 23.0396C75.3135 23.5635 75.1308 24.1839 75.1308 24.9007C75.1308 25.4728 75.2514 25.9622 75.4927 26.3689C75.7339 26.7687 76.1268 27.1134 76.6714 27.4029C77.2159 27.6924 77.9431 27.9543 78.853 28.1887C79.6595 28.4023 80.2523 28.5747 80.6314 28.7056C81.0174 28.8366 81.2655 28.971 81.3758 29.1089C81.4861 29.2398 81.5413 29.4156 81.5413 29.6362C81.5413 29.9877 81.4034 30.2634 81.1277 30.4633C80.852 30.6563 80.4591 30.7528 79.949 30.7528C79.3286 30.7528 78.8151 30.6046 78.4084 30.3083C78.0086 30.0119 77.7501 29.6017 77.633 29.0779L74.7586 29.5121C74.9447 30.677 75.4686 31.58 76.3302 32.221ZM90.4926 33.0482C91.2371 33.0689 91.9953 33.0068 92.7673 32.8621V30.5254C92.1056 30.615 91.5024 30.6426 90.9579 30.6081C90.4134 30.5736 90.017 30.3599 89.7689 29.9671C89.6379 29.7603 89.5655 29.4845 89.5517 29.1399C89.5448 28.7884 89.5414 28.3955 89.5414 27.9612V23.8668H92.7673V21.6955H89.5414V18.5937H86.7291V21.6955H84.8266V23.8668H86.7291V28.1266C86.7291 28.7952 86.736 29.3949 86.7497 29.9257C86.7635 30.4496 86.9083 30.9665 87.184 31.4766C87.4873 32.0212 87.9284 32.4175 88.5075 32.6656C89.0934 32.9069 89.7551 33.0344 90.4926 33.0482ZM96.0974 32.4175C96.9452 32.9207 97.9309 33.1723 99.0545 33.1723C100.171 33.1723 101.153 32.9241 102.001 32.4278C102.856 31.9246 103.521 31.2319 103.997 30.3496C104.479 29.4604 104.72 28.4368 104.72 27.2788C104.72 26.1277 104.483 25.111 104.007 24.2287C103.531 23.3395 102.866 22.6433 102.012 22.1401C101.164 21.6369 100.178 21.3853 99.0545 21.3853C97.9516 21.3853 96.9763 21.6335 96.1284 22.1298C95.2806 22.6261 94.6154 23.3188 94.1329 24.208C93.6504 25.0903 93.4091 26.1139 93.4091 27.2788C93.4091 28.4299 93.6435 29.4501 94.1122 30.3393C94.5878 31.2216 95.2496 31.9143 96.0974 32.4175ZM101.071 29.6362C100.63 30.2428 99.9575 30.5461 99.0545 30.5461C98.1791 30.5461 97.5139 30.2531 97.059 29.6672C96.6109 29.0744 96.3869 28.2783 96.3869 27.2788C96.3869 26.6309 96.48 26.0622 96.6661 25.5728C96.8591 25.0834 97.152 24.7008 97.5449 24.4251C97.9378 24.1494 98.441 24.0115 99.0545 24.0115C99.9437 24.0115 100.612 24.3079 101.06 24.9007C101.515 25.4935 101.743 26.2862 101.743 27.2788C101.743 28.2369 101.519 29.0227 101.071 29.6362ZM119.815 26.2655V32.8621H122.627V25.5211C122.627 24.301 122.3 23.3153 121.645 22.564C120.997 21.8058 120.036 21.4267 118.76 21.4267C118.016 21.4267 117.337 21.5921 116.724 21.923C116.162 22.2229 115.704 22.6352 115.349 23.1598C115.084 22.6837 114.719 22.2921 114.252 21.985C113.694 21.6128 112.977 21.4267 112.102 21.4267C111.337 21.4267 110.644 21.5956 110.024 21.9333C109.555 22.1914 109.159 22.52 108.835 22.9189V21.6955H106.353V32.8621H109.186V26.1001C109.186 25.4591 109.362 24.9386 109.713 24.5388C110.072 24.1322 110.544 23.9288 111.13 23.9288C111.743 23.9288 112.222 24.1356 112.567 24.5492C112.919 24.9559 113.094 25.528 113.094 26.2655V32.8621H115.907V26.1001C115.907 25.6727 115.986 25.2971 116.145 24.9731C116.31 24.6422 116.537 24.3872 116.827 24.208C117.117 24.0219 117.458 23.9288 117.851 23.9288C118.464 23.9288 118.943 24.1356 119.288 24.5492C119.639 24.9559 119.815 25.528 119.815 26.2655ZM127.508 32.4729C128.232 32.9391 129.122 33.1723 130.176 33.1723C131.203 33.1723 132.102 32.9138 132.874 32.3968C133.646 31.8798 134.246 31.1768 134.673 30.2876C135.107 29.3984 135.325 28.3955 135.325 27.2788C135.325 26.1415 135.104 25.1316 134.663 24.2493C134.229 23.3602 133.615 22.6605 132.822 22.1504C132.03 21.6404 131.099 21.3853 130.031 21.3853C128.969 21.3853 128.077 21.6438 127.353 22.1608C127.286 22.2086 127.22 22.2581 127.156 22.3091V21.6955H124.675V37.825H127.508V32.4729ZM127.156 27.2788C127.156 26.6033 127.239 26.0105 127.405 25.5004C127.57 24.9903 127.832 24.594 128.19 24.3114C128.556 24.0288 129.031 23.8875 129.617 23.8875C130.244 23.8875 130.758 24.0426 131.158 24.3527C131.564 24.656 131.864 25.0662 132.057 25.5831C132.25 26.0932 132.347 26.6584 132.347 27.2788C132.347 27.9061 132.254 28.4782 132.068 28.9951C131.882 29.5052 131.595 29.9119 131.209 30.2152C130.823 30.5185 130.327 30.6701 129.721 30.6701C129.093 30.6701 128.59 30.5288 128.211 30.2462C127.839 29.9636 127.57 29.5673 127.405 29.0572C127.239 28.5471 127.156 27.9543 127.156 27.2788ZM137.628 32.221C138.496 32.8552 139.634 33.1723 141.04 33.1723C142.501 33.1723 143.645 32.8449 144.472 32.19C145.3 31.5352 145.713 30.6357 145.713 29.4914C145.713 28.9124 145.596 28.4196 145.362 28.0129C145.127 27.5993 144.752 27.2478 144.235 26.9583C143.724 26.6619 143.046 26.4034 142.198 26.1828C141.329 25.9622 140.681 25.783 140.254 25.6452C139.833 25.5073 139.554 25.3729 139.416 25.2419C139.285 25.111 139.22 24.949 139.22 24.756C139.22 24.432 139.375 24.1839 139.685 24.0115C140.002 23.8392 140.419 23.7703 140.936 23.8047C141.467 23.8461 141.888 23.9874 142.198 24.2287C142.508 24.4699 142.687 24.7973 142.735 25.2109L145.61 24.6939C145.513 24.0184 145.255 23.4325 144.834 22.9362C144.421 22.4399 143.876 22.0574 143.201 21.7886C142.525 21.5197 141.75 21.3853 140.874 21.3853C139.971 21.3853 139.185 21.5301 138.517 21.8196C137.855 22.1022 137.342 22.5089 136.976 23.0396C136.611 23.5635 136.428 24.1839 136.428 24.9007C136.428 25.4728 136.549 25.9622 136.79 26.3689C137.031 26.7687 137.424 27.1134 137.969 27.4029C138.513 27.6924 139.241 27.9543 140.15 28.1887C140.957 28.4023 141.55 28.5747 141.929 28.7056C142.315 28.8366 142.563 28.971 142.673 29.1089C142.784 29.2398 142.839 29.4156 142.839 29.6362C142.839 29.9877 142.701 30.2634 142.425 30.4633C142.149 30.6563 141.757 30.7528 141.246 30.7528C140.626 30.7528 140.113 30.6046 139.706 30.3083C139.306 30.0119 139.048 29.6017 138.93 29.0779L136.056 29.5121C136.242 30.677 136.766 31.58 137.628 32.221ZM147.82 30.0498V32.8621H150.632V30.0498H147.82ZM153.575 17.6631V20.1446H156.387V17.6631H153.575ZM156.387 21.6955H153.575V32.8621H156.387V21.6955ZM160.935 32.4175C161.782 32.9207 162.768 33.1723 163.892 33.1723C165.008 33.1723 165.991 32.9241 166.838 32.4278C167.693 31.9246 168.358 31.2319 168.834 30.3496C169.316 29.4604 169.558 28.4368 169.558 27.2788C169.558 26.1277 169.32 25.111 168.844 24.2287C168.369 23.3395 167.703 22.6433 166.849 22.1401C166.001 21.6369 165.015 21.3853 163.892 21.3853C162.789 21.3853 161.813 21.6335 160.966 22.1298C160.118 22.6261 159.453 23.3188 158.97 24.208C158.488 25.0903 158.246 26.1139 158.246 27.2788C158.246 28.4299 158.481 29.4501 158.949 30.3393C159.425 31.2216 160.087 31.9143 160.935 32.4175ZM165.908 29.6362C165.467 30.2428 164.795 30.5461 163.892 30.5461C163.016 30.5461 162.351 30.2531 161.896 29.6672C161.448 29.0744 161.224 28.2783 161.224 27.2788C161.224 26.6309 161.317 26.0622 161.503 25.5728C161.696 25.0834 161.989 24.7008 162.382 24.4251C162.775 24.1494 163.278 24.0115 163.892 24.0115C164.781 24.0115 165.449 24.3079 165.897 24.9007C166.352 25.4935 166.58 26.2862 166.58 27.2788C166.58 28.2369 166.356 29.0227 165.908 29.6362Z" fill="#1261AC"/>
<defs>
<filter id="filter0_d_708_1229" x="11.4646" y="13.45" width="47.4366" height="25.7115" filterUnits="userSpaceOnUse" color-interpolation-filters="sRGB">
<feFlood flood-opacity="0" result="BackgroundImageFix"/>
<feColorMatrix in="SourceAlpha" type="matrix" values="0 0 0 0 0 0 0 0 0 0 0 0 0 0 0 0 0 0 127 0" result="hardAlpha"/>
<feOffset dx="-1.71258" dy="0.622755"/>
<feComposite in2="hardAlpha" operator="out"/>
<feColorMatrix type="matrix" values="0 0 0 0 0.0705882 0 0 0 0 0.380392 0 0 0 0 0.67451 0 0 0 1 0"/>
<feBlend mode="normal" in2="BackgroundImageFix" result="effect1_dropShadow_708_1229"/>
<feBlend mode="normal" in="SourceGraphic" in2="effect1_dropShadow_708_1229" result="shape"/>
</filter>
</defs>
</svg>
